<mxfile host="app.diagrams.net" agent="Mozilla/5.0 (Windows NT 10.0; Win64; x64) AppleWebKit/537.36 (KHTML, like Gecko) Chrome/136.0.0.0 Safari/537.36" version="27.0.6">
  <diagram name="Page-1" id="deMCsmuBOB2Qyle1FBmS">
    <mxGraphModel dx="1053" dy="1721" grid="1" gridSize="10" guides="1" tooltips="1" connect="1" arrows="1" fold="1" page="1" pageScale="1" pageWidth="850" pageHeight="1100" math="0" shadow="0">
      <root>
        <mxCell id="0" />
        <mxCell id="1" parent="0" />
        <mxCell id="RKQ7zHbird5SUSdAbg0Y-9" value="&lt;b&gt;hotels&lt;/b&gt;" style="whiteSpace=wrap;html=1;align=center;" vertex="1" parent="1">
          <mxGeometry x="170" y="625" width="100" height="40" as="geometry" />
        </mxCell>
        <mxCell id="RKQ7zHbird5SUSdAbg0Y-10" value="loyalty_rewards" style="whiteSpace=wrap;html=1;align=center;" vertex="1" parent="1">
          <mxGeometry x="560" y="-995" width="100" height="40" as="geometry" />
        </mxCell>
        <mxCell id="RKQ7zHbird5SUSdAbg0Y-12" value="multi_city_segments" style="whiteSpace=wrap;html=1;align=center;" vertex="1" parent="1">
          <mxGeometry x="170" y="-230" width="140" height="50" as="geometry" />
        </mxCell>
        <mxCell id="RKQ7zHbird5SUSdAbg0Y-13" value="&lt;b&gt;room_types&lt;/b&gt;" style="whiteSpace=wrap;html=1;align=center;" vertex="1" parent="1">
          <mxGeometry x="25" y="1000" width="100" height="40" as="geometry" />
        </mxCell>
        <mxCell id="RKQ7zHbird5SUSdAbg0Y-15" value="&lt;b&gt;hotel_facilities&lt;/b&gt;" style="whiteSpace=wrap;html=1;align=center;" vertex="1" parent="1">
          <mxGeometry x="240" y="1010" width="100" height="40" as="geometry" />
        </mxCell>
        <mxCell id="RKQ7zHbird5SUSdAbg0Y-17" value="&lt;b&gt;hotel_bookings&lt;/b&gt;" style="whiteSpace=wrap;html=1;align=center;" vertex="1" parent="1">
          <mxGeometry x="350" y="270" width="100" height="40" as="geometry" />
        </mxCell>
        <mxCell id="RKQ7zHbird5SUSdAbg0Y-18" value="&lt;b&gt;hotel_bookings_status&lt;/b&gt;" style="whiteSpace=wrap;html=1;align=center;" vertex="1" parent="1">
          <mxGeometry x="360" y="760" width="165" height="40" as="geometry" />
        </mxCell>
        <mxCell id="RKQ7zHbird5SUSdAbg0Y-19" value="&lt;b&gt;hotel_photos&lt;/b&gt;" style="whiteSpace=wrap;html=1;align=center;" vertex="1" parent="1">
          <mxGeometry x="270" y="685" width="100" height="40" as="geometry" />
        </mxCell>
        <mxCell id="RKQ7zHbird5SUSdAbg0Y-21" value="multi_city_bookings" style="whiteSpace=wrap;html=1;align=center;" vertex="1" parent="1">
          <mxGeometry x="605" y="-230" width="120" height="40" as="geometry" />
        </mxCell>
        <mxCell id="RKQ7zHbird5SUSdAbg0Y-22" value="users" style="whiteSpace=wrap;html=1;align=center;" vertex="1" parent="1">
          <mxGeometry x="110" y="-970" width="80" height="30" as="geometry" />
        </mxCell>
        <mxCell id="RKQ7zHbird5SUSdAbg0Y-23" value="flights" style="whiteSpace=wrap;html=1;align=center;" vertex="1" parent="1">
          <mxGeometry x="345" y="-660" width="100" height="40" as="geometry" />
        </mxCell>
        <mxCell id="RKQ7zHbird5SUSdAbg0Y-29" value="email" style="ellipse;whiteSpace=wrap;html=1;align=center;" vertex="1" parent="1">
          <mxGeometry x="30" y="-1060" width="70" height="30" as="geometry" />
        </mxCell>
        <mxCell id="RKQ7zHbird5SUSdAbg0Y-32" value="password" style="ellipse;whiteSpace=wrap;html=1;align=center;" vertex="1" parent="1">
          <mxGeometry x="35" y="-910" width="60" height="40" as="geometry" />
        </mxCell>
        <mxCell id="RKQ7zHbird5SUSdAbg0Y-34" value="username" style="ellipse;whiteSpace=wrap;html=1;align=center;fontStyle=4;" vertex="1" parent="1">
          <mxGeometry x="115" y="-1070" width="70" height="40" as="geometry" />
        </mxCell>
        <mxCell id="RKQ7zHbird5SUSdAbg0Y-36" value="role" style="ellipse;whiteSpace=wrap;html=1;align=center;" vertex="1" parent="1">
          <mxGeometry x="110" y="-860" width="70" height="30" as="geometry" />
        </mxCell>
        <mxCell id="RKQ7zHbird5SUSdAbg0Y-39" value="updated_at" style="ellipse;whiteSpace=wrap;html=1;align=center;" vertex="1" parent="1">
          <mxGeometry x="200" y="-880" width="80" height="30" as="geometry" />
        </mxCell>
        <mxCell id="RKQ7zHbird5SUSdAbg0Y-40" value="created_at" style="ellipse;whiteSpace=wrap;html=1;align=center;" vertex="1" parent="1">
          <mxGeometry x="240" y="-990" width="80" height="40" as="geometry" />
        </mxCell>
        <mxCell id="RKQ7zHbird5SUSdAbg0Y-41" value="loyalty_points" style="ellipse;whiteSpace=wrap;html=1;align=center;" vertex="1" parent="1">
          <mxGeometry x="200" y="-1060" width="100" height="30" as="geometry" />
        </mxCell>
        <mxCell id="RKQ7zHbird5SUSdAbg0Y-43" value="ID" style="ellipse;whiteSpace=wrap;html=1;align=center;fontStyle=4;" vertex="1" parent="1">
          <mxGeometry x="420" y="-1040" width="100" height="30" as="geometry" />
        </mxCell>
        <mxCell id="RKQ7zHbird5SUSdAbg0Y-44" value="ID" style="ellipse;whiteSpace=wrap;html=1;align=center;fontStyle=4;" vertex="1" parent="1">
          <mxGeometry x="30" y="-1000" width="50" height="30" as="geometry" />
        </mxCell>
        <mxCell id="RKQ7zHbird5SUSdAbg0Y-45" value="name&lt;span style=&quot;color: rgba(0, 0, 0, 0); font-family: monospace; font-size: 0px; text-align: start; text-wrap-mode: nowrap;&quot;&gt;3CmxGraphModel%3E%3Croot%3E%3CmxCell%20id%3D%220%22%2F%3E%3CmxCell%20id%3D%221%22%20parent%3D%220%22%2F%3E%3CmxCell%20id%3D%222%22%20value%3D%22Attribute%22%20style%3D%22ellipse%3BwhiteSpace%3Dwrap%3Bhtml%3D1%3Balign%3Dcenter%3B%22%20vertex%3D%221%22%20parent%3D%221%22%3E%3CmxGeometry%20x%3D%22270%22%20y%3D%22130%22%20width%3D%22100%22%20height%3D%2240%22%20as%3D%22geometry%22%2F%3E%3C%2FmxCell%3E%3C%2Froot%3E%3C%2FmxGraphModel%3E&lt;/span&gt;&lt;span style=&quot;color: rgba(0, 0, 0, 0); font-family: monospace; font-size: 0px; text-align: start; text-wrap-mode: nowrap;&quot;&gt;%3CmxGraphModel%3E%3Croot%3E%3CmxCell%20id%3D%220%22%2F%3E%3CmxCell%20id%3D%221%22%20parent%3D%220%22%2F%3E%3CmxCell%20id%3D%222%22%20value%3D%22Attribute%22%20style%3D%22ellipse%3BwhiteSpace%3Dwrap%3Bhtml%3D1%3Balign%3Dcenter%3B%22%20vertex%3D%221%22%20parent%3D%221%22%3E%3CmxGeometry%20x%3D%22270%22%20y%3D%22130%22%20width%3D%22100%22%20height%3D%2240%22%20as%3D%22geometry%22%2F%3E%3C%2FmxCell%3E%3C%2Froot%3E%3C%2FmxGraphModel%3E&lt;/span&gt;" style="ellipse;whiteSpace=wrap;html=1;align=center;" vertex="1" parent="1">
          <mxGeometry x="560" y="-1090" width="100" height="40" as="geometry" />
        </mxCell>
        <mxCell id="RKQ7zHbird5SUSdAbg0Y-46" value="points_required" style="ellipse;whiteSpace=wrap;html=1;align=center;" vertex="1" parent="1">
          <mxGeometry x="425" y="-970" width="100" height="45" as="geometry" />
        </mxCell>
        <mxCell id="RKQ7zHbird5SUSdAbg0Y-47" value="discount_percent" style="ellipse;whiteSpace=wrap;html=1;align=center;" vertex="1" parent="1">
          <mxGeometry x="575" y="-920" width="100" height="40" as="geometry" />
        </mxCell>
        <mxCell id="RKQ7zHbird5SUSdAbg0Y-48" value="is_active" style="ellipse;whiteSpace=wrap;html=1;align=center;" vertex="1" parent="1">
          <mxGeometry x="710" y="-995" width="100" height="40" as="geometry" />
        </mxCell>
        <mxCell id="RKQ7zHbird5SUSdAbg0Y-49" value="ID" style="ellipse;whiteSpace=wrap;html=1;align=center;fontStyle=4;" vertex="1" parent="1">
          <mxGeometry x="250" y="-820" width="70" height="20" as="geometry" />
        </mxCell>
        <mxCell id="RKQ7zHbird5SUSdAbg0Y-50" value="flight_number" style="ellipse;whiteSpace=wrap;html=1;align=center;" vertex="1" parent="1">
          <mxGeometry x="345" y="-830" width="100" height="40" as="geometry" />
        </mxCell>
        <mxCell id="RKQ7zHbird5SUSdAbg0Y-51" value="airline" style="ellipse;whiteSpace=wrap;html=1;align=center;" vertex="1" parent="1">
          <mxGeometry x="450" y="-830" width="100" height="40" as="geometry" />
        </mxCell>
        <mxCell id="RKQ7zHbird5SUSdAbg0Y-52" value="departure_airport" style="ellipse;whiteSpace=wrap;html=1;align=center;" vertex="1" parent="1">
          <mxGeometry x="550" y="-810" width="100" height="40" as="geometry" />
        </mxCell>
        <mxCell id="RKQ7zHbird5SUSdAbg0Y-53" value="arrival_airport" style="ellipse;whiteSpace=wrap;html=1;align=center;" vertex="1" parent="1">
          <mxGeometry x="570" y="-760" width="100" height="40" as="geometry" />
        </mxCell>
        <mxCell id="RKQ7zHbird5SUSdAbg0Y-59" value="" style="endArrow=none;html=1;rounded=0;entryX=0.5;entryY=1;entryDx=0;entryDy=0;exitX=1;exitY=0;exitDx=0;exitDy=0;" edge="1" parent="1" source="RKQ7zHbird5SUSdAbg0Y-22" target="RKQ7zHbird5SUSdAbg0Y-41">
          <mxGeometry width="50" height="50" relative="1" as="geometry">
            <mxPoint x="195" y="-690" as="sourcePoint" />
            <mxPoint x="245" y="-740" as="targetPoint" />
          </mxGeometry>
        </mxCell>
        <mxCell id="RKQ7zHbird5SUSdAbg0Y-60" value="" style="endArrow=none;html=1;rounded=0;entryX=1;entryY=0.5;entryDx=0;entryDy=0;exitX=0;exitY=0;exitDx=0;exitDy=0;" edge="1" parent="1" source="RKQ7zHbird5SUSdAbg0Y-22" target="RKQ7zHbird5SUSdAbg0Y-44">
          <mxGeometry width="50" height="50" relative="1" as="geometry">
            <mxPoint x="220" y="-690" as="sourcePoint" />
            <mxPoint x="270" y="-740" as="targetPoint" />
          </mxGeometry>
        </mxCell>
        <mxCell id="RKQ7zHbird5SUSdAbg0Y-61" value="" style="endArrow=none;html=1;rounded=0;exitX=0;exitY=1;exitDx=0;exitDy=0;entryX=0.5;entryY=0;entryDx=0;entryDy=0;" edge="1" parent="1" source="RKQ7zHbird5SUSdAbg0Y-22" target="RKQ7zHbird5SUSdAbg0Y-32">
          <mxGeometry width="50" height="50" relative="1" as="geometry">
            <mxPoint x="220" y="-690" as="sourcePoint" />
            <mxPoint x="270" y="-740" as="targetPoint" />
          </mxGeometry>
        </mxCell>
        <mxCell id="RKQ7zHbird5SUSdAbg0Y-62" value="" style="endArrow=none;html=1;rounded=0;entryX=1;entryY=1;entryDx=0;entryDy=0;exitX=0.5;exitY=0;exitDx=0;exitDy=0;" edge="1" parent="1" source="RKQ7zHbird5SUSdAbg0Y-39" target="RKQ7zHbird5SUSdAbg0Y-22">
          <mxGeometry width="50" height="50" relative="1" as="geometry">
            <mxPoint x="220" y="-690" as="sourcePoint" />
            <mxPoint x="270" y="-740" as="targetPoint" />
          </mxGeometry>
        </mxCell>
        <mxCell id="RKQ7zHbird5SUSdAbg0Y-63" value="" style="endArrow=none;html=1;rounded=0;entryX=0.5;entryY=1;entryDx=0;entryDy=0;exitX=0.5;exitY=0;exitDx=0;exitDy=0;" edge="1" parent="1" source="RKQ7zHbird5SUSdAbg0Y-36" target="RKQ7zHbird5SUSdAbg0Y-22">
          <mxGeometry width="50" height="50" relative="1" as="geometry">
            <mxPoint x="220" y="-690" as="sourcePoint" />
            <mxPoint x="270" y="-740" as="targetPoint" />
          </mxGeometry>
        </mxCell>
        <mxCell id="RKQ7zHbird5SUSdAbg0Y-64" value="" style="endArrow=none;html=1;rounded=0;entryX=0;entryY=0.5;entryDx=0;entryDy=0;exitX=1;exitY=0;exitDx=0;exitDy=0;" edge="1" parent="1" source="RKQ7zHbird5SUSdAbg0Y-22" target="RKQ7zHbird5SUSdAbg0Y-40">
          <mxGeometry width="50" height="50" relative="1" as="geometry">
            <mxPoint x="220" y="-690" as="sourcePoint" />
            <mxPoint x="270" y="-740" as="targetPoint" />
          </mxGeometry>
        </mxCell>
        <mxCell id="RKQ7zHbird5SUSdAbg0Y-65" value="" style="endArrow=none;html=1;rounded=0;entryX=0.5;entryY=1;entryDx=0;entryDy=0;exitX=0.5;exitY=0;exitDx=0;exitDy=0;" edge="1" parent="1" source="RKQ7zHbird5SUSdAbg0Y-22" target="RKQ7zHbird5SUSdAbg0Y-34">
          <mxGeometry width="50" height="50" relative="1" as="geometry">
            <mxPoint x="220" y="-690" as="sourcePoint" />
            <mxPoint x="270" y="-740" as="targetPoint" />
          </mxGeometry>
        </mxCell>
        <mxCell id="RKQ7zHbird5SUSdAbg0Y-66" value="" style="endArrow=none;html=1;rounded=0;entryX=0;entryY=0.5;entryDx=0;entryDy=0;exitX=0.5;exitY=0;exitDx=0;exitDy=0;" edge="1" parent="1" source="RKQ7zHbird5SUSdAbg0Y-23" target="RKQ7zHbird5SUSdAbg0Y-53">
          <mxGeometry width="50" height="50" relative="1" as="geometry">
            <mxPoint x="450" y="-660" as="sourcePoint" />
            <mxPoint x="260" y="-720" as="targetPoint" />
          </mxGeometry>
        </mxCell>
        <mxCell id="RKQ7zHbird5SUSdAbg0Y-67" value="" style="endArrow=none;html=1;rounded=0;entryX=0;entryY=0.5;entryDx=0;entryDy=0;exitX=0.5;exitY=0;exitDx=0;exitDy=0;" edge="1" parent="1" source="RKQ7zHbird5SUSdAbg0Y-23" target="RKQ7zHbird5SUSdAbg0Y-52">
          <mxGeometry width="50" height="50" relative="1" as="geometry">
            <mxPoint x="210" y="-670" as="sourcePoint" />
            <mxPoint x="260" y="-720" as="targetPoint" />
          </mxGeometry>
        </mxCell>
        <mxCell id="RKQ7zHbird5SUSdAbg0Y-68" value="" style="endArrow=none;html=1;rounded=0;entryX=0.5;entryY=1;entryDx=0;entryDy=0;exitX=0.5;exitY=0;exitDx=0;exitDy=0;" edge="1" parent="1" source="RKQ7zHbird5SUSdAbg0Y-23" target="RKQ7zHbird5SUSdAbg0Y-51">
          <mxGeometry width="50" height="50" relative="1" as="geometry">
            <mxPoint x="210" y="-670" as="sourcePoint" />
            <mxPoint x="260" y="-720" as="targetPoint" />
          </mxGeometry>
        </mxCell>
        <mxCell id="RKQ7zHbird5SUSdAbg0Y-69" value="" style="endArrow=none;html=1;rounded=0;entryX=0.5;entryY=0;entryDx=0;entryDy=0;exitX=1;exitY=1;exitDx=0;exitDy=0;" edge="1" parent="1" source="RKQ7zHbird5SUSdAbg0Y-29" target="RKQ7zHbird5SUSdAbg0Y-22">
          <mxGeometry width="50" height="50" relative="1" as="geometry">
            <mxPoint x="230" y="-650" as="sourcePoint" />
            <mxPoint x="280" y="-700" as="targetPoint" />
          </mxGeometry>
        </mxCell>
        <mxCell id="RKQ7zHbird5SUSdAbg0Y-70" value="" style="endArrow=none;html=1;rounded=0;entryX=0.5;entryY=1;entryDx=0;entryDy=0;exitX=0.5;exitY=0;exitDx=0;exitDy=0;" edge="1" parent="1" source="RKQ7zHbird5SUSdAbg0Y-23" target="RKQ7zHbird5SUSdAbg0Y-50">
          <mxGeometry width="50" height="50" relative="1" as="geometry">
            <mxPoint x="220" y="-650" as="sourcePoint" />
            <mxPoint x="270" y="-700" as="targetPoint" />
          </mxGeometry>
        </mxCell>
        <mxCell id="RKQ7zHbird5SUSdAbg0Y-71" value="" style="endArrow=none;html=1;rounded=0;entryX=0.5;entryY=1;entryDx=0;entryDy=0;exitX=0.5;exitY=0;exitDx=0;exitDy=0;" edge="1" parent="1" source="RKQ7zHbird5SUSdAbg0Y-23" target="RKQ7zHbird5SUSdAbg0Y-49">
          <mxGeometry width="50" height="50" relative="1" as="geometry">
            <mxPoint x="95" y="-540" as="sourcePoint" />
            <mxPoint x="145" y="-590" as="targetPoint" />
          </mxGeometry>
        </mxCell>
        <mxCell id="RKQ7zHbird5SUSdAbg0Y-73" value="" style="endArrow=none;html=1;rounded=0;entryX=1;entryY=0.5;entryDx=0;entryDy=0;exitX=0;exitY=0.5;exitDx=0;exitDy=0;" edge="1" parent="1" source="RKQ7zHbird5SUSdAbg0Y-48" target="RKQ7zHbird5SUSdAbg0Y-10">
          <mxGeometry width="50" height="50" relative="1" as="geometry">
            <mxPoint x="220" y="-650" as="sourcePoint" />
            <mxPoint x="270" y="-700" as="targetPoint" />
          </mxGeometry>
        </mxCell>
        <mxCell id="RKQ7zHbird5SUSdAbg0Y-76" value="" style="endArrow=none;html=1;rounded=0;entryX=0.5;entryY=1;entryDx=0;entryDy=0;exitX=0.368;exitY=0.012;exitDx=0;exitDy=0;exitPerimeter=0;" edge="1" parent="1" source="RKQ7zHbird5SUSdAbg0Y-47" target="RKQ7zHbird5SUSdAbg0Y-10">
          <mxGeometry width="50" height="50" relative="1" as="geometry">
            <mxPoint x="380" y="-990" as="sourcePoint" />
            <mxPoint x="430" y="-1040" as="targetPoint" />
          </mxGeometry>
        </mxCell>
        <mxCell id="RKQ7zHbird5SUSdAbg0Y-77" value="" style="endArrow=none;html=1;rounded=0;exitX=0;exitY=0.5;exitDx=0;exitDy=0;entryX=1;entryY=0;entryDx=0;entryDy=0;" edge="1" parent="1" source="RKQ7zHbird5SUSdAbg0Y-10" target="RKQ7zHbird5SUSdAbg0Y-46">
          <mxGeometry width="50" height="50" relative="1" as="geometry">
            <mxPoint x="380" y="-1000" as="sourcePoint" />
            <mxPoint x="430" y="-1050" as="targetPoint" />
          </mxGeometry>
        </mxCell>
        <mxCell id="RKQ7zHbird5SUSdAbg0Y-78" value="" style="endArrow=none;html=1;rounded=0;entryX=0;entryY=0;entryDx=0;entryDy=0;exitX=1;exitY=1;exitDx=0;exitDy=0;" edge="1" parent="1" source="RKQ7zHbird5SUSdAbg0Y-43" target="RKQ7zHbird5SUSdAbg0Y-10">
          <mxGeometry width="50" height="50" relative="1" as="geometry">
            <mxPoint x="380" y="-1000" as="sourcePoint" />
            <mxPoint x="430" y="-1050" as="targetPoint" />
          </mxGeometry>
        </mxCell>
        <mxCell id="RKQ7zHbird5SUSdAbg0Y-79" value="" style="endArrow=none;html=1;rounded=0;entryX=0.5;entryY=0;entryDx=0;entryDy=0;exitX=0.5;exitY=1;exitDx=0;exitDy=0;" edge="1" parent="1" source="RKQ7zHbird5SUSdAbg0Y-45" target="RKQ7zHbird5SUSdAbg0Y-10">
          <mxGeometry width="50" height="50" relative="1" as="geometry">
            <mxPoint x="380" y="-1000" as="sourcePoint" />
            <mxPoint x="430" y="-1050" as="targetPoint" />
          </mxGeometry>
        </mxCell>
        <mxCell id="RKQ7zHbird5SUSdAbg0Y-80" value="status" style="ellipse;whiteSpace=wrap;html=1;align=center;" vertex="1" parent="1">
          <mxGeometry x="290" y="-450" width="100" height="40" as="geometry" />
        </mxCell>
        <mxCell id="RKQ7zHbird5SUSdAbg0Y-81" value="available_seats" style="ellipse;whiteSpace=wrap;html=1;align=center;" vertex="1" parent="1">
          <mxGeometry x="580" y="-660" width="100" height="40" as="geometry" />
        </mxCell>
        <mxCell id="RKQ7zHbird5SUSdAbg0Y-82" value="total_seats" style="ellipse;whiteSpace=wrap;html=1;align=center;" vertex="1" parent="1">
          <mxGeometry x="400" y="-450" width="100" height="40" as="geometry" />
        </mxCell>
        <mxCell id="RKQ7zHbird5SUSdAbg0Y-83" value="first_class_price" style="ellipse;whiteSpace=wrap;html=1;align=center;" vertex="1" parent="1">
          <mxGeometry x="200" y="-480" width="100" height="40" as="geometry" />
        </mxCell>
        <mxCell id="RKQ7zHbird5SUSdAbg0Y-84" value="business_price" style="ellipse;whiteSpace=wrap;html=1;align=center;" vertex="1" parent="1">
          <mxGeometry x="510" y="-490" width="100" height="40" as="geometry" />
        </mxCell>
        <mxCell id="RKQ7zHbird5SUSdAbg0Y-85" value="economy_price" style="ellipse;whiteSpace=wrap;html=1;align=center;" vertex="1" parent="1">
          <mxGeometry x="575" y="-600" width="100" height="40" as="geometry" />
        </mxCell>
        <mxCell id="RKQ7zHbird5SUSdAbg0Y-86" value="arrival_time" style="ellipse;whiteSpace=wrap;html=1;align=center;" vertex="1" parent="1">
          <mxGeometry x="140" y="-720" width="100" height="40" as="geometry" />
        </mxCell>
        <mxCell id="RKQ7zHbird5SUSdAbg0Y-87" value="departure_time" style="ellipse;whiteSpace=wrap;html=1;align=center;" vertex="1" parent="1">
          <mxGeometry x="580" y="-710" width="100" height="40" as="geometry" />
        </mxCell>
        <mxCell id="RKQ7zHbird5SUSdAbg0Y-90" value="updated_at" style="ellipse;whiteSpace=wrap;html=1;align=center;" vertex="1" parent="1">
          <mxGeometry x="130" y="-660" width="100" height="40" as="geometry" />
        </mxCell>
        <mxCell id="RKQ7zHbird5SUSdAbg0Y-91" value="created_at" style="ellipse;whiteSpace=wrap;html=1;align=center;" vertex="1" parent="1">
          <mxGeometry x="180" y="-780" width="100" height="40" as="geometry" />
        </mxCell>
        <mxCell id="RKQ7zHbird5SUSdAbg0Y-92" value="gate_number" style="ellipse;whiteSpace=wrap;html=1;align=center;" vertex="1" parent="1">
          <mxGeometry x="130" y="-600" width="100" height="40" as="geometry" />
        </mxCell>
        <mxCell id="RKQ7zHbird5SUSdAbg0Y-93" value="" style="endArrow=none;html=1;rounded=0;entryX=0.5;entryY=1;entryDx=0;entryDy=0;exitX=0.5;exitY=0;exitDx=0;exitDy=0;" edge="1" parent="1" source="RKQ7zHbird5SUSdAbg0Y-83" target="RKQ7zHbird5SUSdAbg0Y-23">
          <mxGeometry width="50" height="50" relative="1" as="geometry">
            <mxPoint x="220" y="-530" as="sourcePoint" />
            <mxPoint x="270" y="-580" as="targetPoint" />
          </mxGeometry>
        </mxCell>
        <mxCell id="RKQ7zHbird5SUSdAbg0Y-95" value="" style="endArrow=none;html=1;rounded=0;entryX=0;entryY=0.5;entryDx=0;entryDy=0;exitX=1;exitY=0.5;exitDx=0;exitDy=0;" edge="1" parent="1" source="RKQ7zHbird5SUSdAbg0Y-23" target="RKQ7zHbird5SUSdAbg0Y-81">
          <mxGeometry width="50" height="50" relative="1" as="geometry">
            <mxPoint x="220" y="-530" as="sourcePoint" />
            <mxPoint x="270" y="-580" as="targetPoint" />
          </mxGeometry>
        </mxCell>
        <mxCell id="RKQ7zHbird5SUSdAbg0Y-96" value="" style="endArrow=none;html=1;rounded=0;entryX=0;entryY=0.5;entryDx=0;entryDy=0;exitX=0.5;exitY=0;exitDx=0;exitDy=0;" edge="1" parent="1" source="RKQ7zHbird5SUSdAbg0Y-23" target="RKQ7zHbird5SUSdAbg0Y-87">
          <mxGeometry width="50" height="50" relative="1" as="geometry">
            <mxPoint x="220" y="-530" as="sourcePoint" />
            <mxPoint x="270" y="-580" as="targetPoint" />
          </mxGeometry>
        </mxCell>
        <mxCell id="RKQ7zHbird5SUSdAbg0Y-97" value="" style="endArrow=none;html=1;rounded=0;entryX=1;entryY=0.5;entryDx=0;entryDy=0;exitX=0;exitY=0.5;exitDx=0;exitDy=0;" edge="1" parent="1" source="RKQ7zHbird5SUSdAbg0Y-23" target="RKQ7zHbird5SUSdAbg0Y-92">
          <mxGeometry width="50" height="50" relative="1" as="geometry">
            <mxPoint x="220" y="-530" as="sourcePoint" />
            <mxPoint x="270" y="-580" as="targetPoint" />
          </mxGeometry>
        </mxCell>
        <mxCell id="RKQ7zHbird5SUSdAbg0Y-98" value="" style="endArrow=none;html=1;rounded=0;entryX=1;entryY=0.5;entryDx=0;entryDy=0;exitX=0;exitY=0.5;exitDx=0;exitDy=0;" edge="1" parent="1" source="RKQ7zHbird5SUSdAbg0Y-23" target="RKQ7zHbird5SUSdAbg0Y-90">
          <mxGeometry width="50" height="50" relative="1" as="geometry">
            <mxPoint x="220" y="-530" as="sourcePoint" />
            <mxPoint x="270" y="-580" as="targetPoint" />
          </mxGeometry>
        </mxCell>
        <mxCell id="RKQ7zHbird5SUSdAbg0Y-99" value="" style="endArrow=none;html=1;rounded=0;entryX=0.438;entryY=0.001;entryDx=0;entryDy=0;entryPerimeter=0;exitX=0.5;exitY=1;exitDx=0;exitDy=0;" edge="1" parent="1" source="RKQ7zHbird5SUSdAbg0Y-23" target="RKQ7zHbird5SUSdAbg0Y-80">
          <mxGeometry width="50" height="50" relative="1" as="geometry">
            <mxPoint x="220" y="-530" as="sourcePoint" />
            <mxPoint x="270" y="-580" as="targetPoint" />
          </mxGeometry>
        </mxCell>
        <mxCell id="RKQ7zHbird5SUSdAbg0Y-100" value="" style="endArrow=none;html=1;rounded=0;entryX=1;entryY=0.5;entryDx=0;entryDy=0;exitX=0;exitY=0.5;exitDx=0;exitDy=0;" edge="1" parent="1" source="RKQ7zHbird5SUSdAbg0Y-23" target="RKQ7zHbird5SUSdAbg0Y-86">
          <mxGeometry width="50" height="50" relative="1" as="geometry">
            <mxPoint x="220" y="-530" as="sourcePoint" />
            <mxPoint x="270" y="-580" as="targetPoint" />
          </mxGeometry>
        </mxCell>
        <mxCell id="RKQ7zHbird5SUSdAbg0Y-101" value="" style="endArrow=none;html=1;rounded=0;entryX=1;entryY=0.5;entryDx=0;entryDy=0;exitX=0.5;exitY=0;exitDx=0;exitDy=0;" edge="1" parent="1" source="RKQ7zHbird5SUSdAbg0Y-23" target="RKQ7zHbird5SUSdAbg0Y-91">
          <mxGeometry width="50" height="50" relative="1" as="geometry">
            <mxPoint x="220" y="-530" as="sourcePoint" />
            <mxPoint x="270" y="-580" as="targetPoint" />
          </mxGeometry>
        </mxCell>
        <mxCell id="RKQ7zHbird5SUSdAbg0Y-104" value="" style="endArrow=none;html=1;rounded=0;entryX=0.5;entryY=1;entryDx=0;entryDy=0;exitX=0;exitY=0;exitDx=0;exitDy=0;" edge="1" parent="1" source="RKQ7zHbird5SUSdAbg0Y-84" target="RKQ7zHbird5SUSdAbg0Y-23">
          <mxGeometry width="50" height="50" relative="1" as="geometry">
            <mxPoint x="420" y="-520" as="sourcePoint" />
            <mxPoint x="470" y="-570" as="targetPoint" />
          </mxGeometry>
        </mxCell>
        <mxCell id="RKQ7zHbird5SUSdAbg0Y-105" value="" style="endArrow=none;html=1;rounded=0;entryX=0.5;entryY=1;entryDx=0;entryDy=0;exitX=0.5;exitY=0;exitDx=0;exitDy=0;" edge="1" parent="1" source="RKQ7zHbird5SUSdAbg0Y-82" target="RKQ7zHbird5SUSdAbg0Y-23">
          <mxGeometry width="50" height="50" relative="1" as="geometry">
            <mxPoint x="420" y="-520" as="sourcePoint" />
            <mxPoint x="470" y="-570" as="targetPoint" />
          </mxGeometry>
        </mxCell>
        <mxCell id="RKQ7zHbird5SUSdAbg0Y-107" value="" style="endArrow=none;html=1;rounded=0;entryX=1;entryY=0.5;entryDx=0;entryDy=0;exitX=0;exitY=0.5;exitDx=0;exitDy=0;" edge="1" parent="1" source="RKQ7zHbird5SUSdAbg0Y-85" target="RKQ7zHbird5SUSdAbg0Y-23">
          <mxGeometry width="50" height="50" relative="1" as="geometry">
            <mxPoint x="420" y="-520" as="sourcePoint" />
            <mxPoint x="470" y="-570" as="targetPoint" />
          </mxGeometry>
        </mxCell>
        <mxCell id="RKQ7zHbird5SUSdAbg0Y-108" value="ID" style="ellipse;whiteSpace=wrap;html=1;align=center;fontStyle=4;" vertex="1" parent="1">
          <mxGeometry x="10" y="-230" width="100" height="40" as="geometry" />
        </mxCell>
        <mxCell id="RKQ7zHbird5SUSdAbg0Y-109" value="booking_reference" style="ellipse;whiteSpace=wrap;html=1;align=center;" vertex="1" parent="1">
          <mxGeometry x="585" y="-340" width="100" height="40" as="geometry" />
        </mxCell>
        <mxCell id="RKQ7zHbird5SUSdAbg0Y-110" value="total_price" style="ellipse;whiteSpace=wrap;html=1;align=center;" vertex="1" parent="1">
          <mxGeometry x="425" y="-220" width="100" height="40" as="geometry" />
        </mxCell>
        <mxCell id="RKQ7zHbird5SUSdAbg0Y-111" value="created_at" style="ellipse;whiteSpace=wrap;html=1;align=center;" vertex="1" parent="1">
          <mxGeometry x="705" y="-150" width="100" height="40" as="geometry" />
        </mxCell>
        <mxCell id="RKQ7zHbird5SUSdAbg0Y-112" value="status" style="ellipse;whiteSpace=wrap;html=1;align=center;" vertex="1" parent="1">
          <mxGeometry x="535" y="-130" width="100" height="40" as="geometry" />
        </mxCell>
        <mxCell id="RKQ7zHbird5SUSdAbg0Y-113" value="segment_order" style="ellipse;whiteSpace=wrap;html=1;align=center;" vertex="1" parent="1">
          <mxGeometry x="115" y="-320" width="100" height="40" as="geometry" />
        </mxCell>
        <mxCell id="RKQ7zHbird5SUSdAbg0Y-114" value="travel_class" style="ellipse;whiteSpace=wrap;html=1;align=center;" vertex="1" parent="1">
          <mxGeometry x="280" y="-310" width="100" height="40" as="geometry" />
        </mxCell>
        <mxCell id="RKQ7zHbird5SUSdAbg0Y-116" value="&lt;span style=&quot;border-bottom: 1px dotted&quot;&gt;booking_id&lt;/span&gt;" style="ellipse;whiteSpace=wrap;html=1;align=center;" vertex="1" parent="1">
          <mxGeometry x="70" y="-120" width="100" height="40" as="geometry" />
        </mxCell>
        <mxCell id="RKQ7zHbird5SUSdAbg0Y-117" value="&lt;span style=&quot;border-bottom: 1px dotted&quot;&gt;flight_id&lt;/span&gt;" style="ellipse;whiteSpace=wrap;html=1;align=center;" vertex="1" parent="1">
          <mxGeometry x="250" y="-110" width="100" height="40" as="geometry" />
        </mxCell>
        <mxCell id="RKQ7zHbird5SUSdAbg0Y-119" value="ID" style="ellipse;whiteSpace=wrap;html=1;align=center;fontStyle=4;" vertex="1" parent="1">
          <mxGeometry x="455" y="-320" width="100" height="40" as="geometry" />
        </mxCell>
        <mxCell id="RKQ7zHbird5SUSdAbg0Y-120" value="user_id" style="ellipse;whiteSpace=wrap;html=1;align=center;" vertex="1" parent="1">
          <mxGeometry x="735" y="-310" width="100" height="40" as="geometry" />
        </mxCell>
        <mxCell id="RKQ7zHbird5SUSdAbg0Y-121" value="" style="endArrow=none;html=1;rounded=0;entryX=0.5;entryY=1;entryDx=0;entryDy=0;exitX=0.5;exitY=0;exitDx=0;exitDy=0;" edge="1" parent="1" source="RKQ7zHbird5SUSdAbg0Y-12" target="RKQ7zHbird5SUSdAbg0Y-113">
          <mxGeometry width="50" height="50" relative="1" as="geometry">
            <mxPoint x="70" y="80" as="sourcePoint" />
            <mxPoint x="120" y="30" as="targetPoint" />
          </mxGeometry>
        </mxCell>
        <mxCell id="RKQ7zHbird5SUSdAbg0Y-122" value="" style="endArrow=none;html=1;rounded=0;entryX=0.5;entryY=0;entryDx=0;entryDy=0;exitX=0;exitY=0.5;exitDx=0;exitDy=0;" edge="1" parent="1" source="RKQ7zHbird5SUSdAbg0Y-120" target="RKQ7zHbird5SUSdAbg0Y-21">
          <mxGeometry width="50" height="50" relative="1" as="geometry">
            <mxPoint x="375" y="10" as="sourcePoint" />
            <mxPoint x="425" y="-40" as="targetPoint" />
          </mxGeometry>
        </mxCell>
        <mxCell id="RKQ7zHbird5SUSdAbg0Y-123" value="" style="endArrow=none;html=1;rounded=0;entryX=0.5;entryY=1;entryDx=0;entryDy=0;exitX=0.5;exitY=0;exitDx=0;exitDy=0;" edge="1" parent="1" source="RKQ7zHbird5SUSdAbg0Y-111" target="RKQ7zHbird5SUSdAbg0Y-21">
          <mxGeometry width="50" height="50" relative="1" as="geometry">
            <mxPoint x="375" y="10" as="sourcePoint" />
            <mxPoint x="425" y="-40" as="targetPoint" />
          </mxGeometry>
        </mxCell>
        <mxCell id="RKQ7zHbird5SUSdAbg0Y-124" value="" style="endArrow=none;html=1;rounded=0;entryX=0.5;entryY=0;entryDx=0;entryDy=0;exitX=0.5;exitY=1;exitDx=0;exitDy=0;" edge="1" parent="1" source="RKQ7zHbird5SUSdAbg0Y-21" target="RKQ7zHbird5SUSdAbg0Y-112">
          <mxGeometry width="50" height="50" relative="1" as="geometry">
            <mxPoint x="375" y="10" as="sourcePoint" />
            <mxPoint x="425" y="-40" as="targetPoint" />
          </mxGeometry>
        </mxCell>
        <mxCell id="RKQ7zHbird5SUSdAbg0Y-125" value="" style="endArrow=none;html=1;rounded=0;entryX=1;entryY=1;entryDx=0;entryDy=0;exitX=0.5;exitY=0;exitDx=0;exitDy=0;" edge="1" parent="1" source="RKQ7zHbird5SUSdAbg0Y-21" target="RKQ7zHbird5SUSdAbg0Y-119">
          <mxGeometry width="50" height="50" relative="1" as="geometry">
            <mxPoint x="670" y="-230" as="sourcePoint" />
            <mxPoint x="425" y="-40" as="targetPoint" />
          </mxGeometry>
        </mxCell>
        <mxCell id="RKQ7zHbird5SUSdAbg0Y-126" value="" style="endArrow=none;html=1;rounded=0;entryX=1;entryY=0.5;entryDx=0;entryDy=0;exitX=0;exitY=0.5;exitDx=0;exitDy=0;" edge="1" parent="1" source="RKQ7zHbird5SUSdAbg0Y-21" target="RKQ7zHbird5SUSdAbg0Y-110">
          <mxGeometry width="50" height="50" relative="1" as="geometry">
            <mxPoint x="375" y="10" as="sourcePoint" />
            <mxPoint x="425" y="-40" as="targetPoint" />
          </mxGeometry>
        </mxCell>
        <mxCell id="RKQ7zHbird5SUSdAbg0Y-127" value="" style="endArrow=none;html=1;rounded=0;entryX=0.5;entryY=1;entryDx=0;entryDy=0;exitX=0.5;exitY=0;exitDx=0;exitDy=0;" edge="1" parent="1" source="RKQ7zHbird5SUSdAbg0Y-21" target="RKQ7zHbird5SUSdAbg0Y-109">
          <mxGeometry width="50" height="50" relative="1" as="geometry">
            <mxPoint x="375" y="10" as="sourcePoint" />
            <mxPoint x="425" y="-40" as="targetPoint" />
          </mxGeometry>
        </mxCell>
        <mxCell id="RKQ7zHbird5SUSdAbg0Y-128" value="" style="endArrow=none;html=1;rounded=0;entryX=0;entryY=0.5;entryDx=0;entryDy=0;exitX=1;exitY=0.5;exitDx=0;exitDy=0;" edge="1" parent="1" source="RKQ7zHbird5SUSdAbg0Y-108" target="RKQ7zHbird5SUSdAbg0Y-12">
          <mxGeometry width="50" height="50" relative="1" as="geometry">
            <mxPoint x="150" y="120" as="sourcePoint" />
            <mxPoint x="200" y="70" as="targetPoint" />
          </mxGeometry>
        </mxCell>
        <mxCell id="RKQ7zHbird5SUSdAbg0Y-129" value="" style="endArrow=none;html=1;rounded=0;entryX=0.5;entryY=1;entryDx=0;entryDy=0;exitX=0.5;exitY=0;exitDx=0;exitDy=0;" edge="1" parent="1" source="RKQ7zHbird5SUSdAbg0Y-116" target="RKQ7zHbird5SUSdAbg0Y-12">
          <mxGeometry width="50" height="50" relative="1" as="geometry">
            <mxPoint x="150" y="120" as="sourcePoint" />
            <mxPoint x="200" y="70" as="targetPoint" />
          </mxGeometry>
        </mxCell>
        <mxCell id="RKQ7zHbird5SUSdAbg0Y-130" value="" style="endArrow=none;html=1;rounded=0;entryX=0.5;entryY=1;entryDx=0;entryDy=0;exitX=0.5;exitY=0;exitDx=0;exitDy=0;" edge="1" parent="1" source="RKQ7zHbird5SUSdAbg0Y-117" target="RKQ7zHbird5SUSdAbg0Y-12">
          <mxGeometry width="50" height="50" relative="1" as="geometry">
            <mxPoint x="150" y="120" as="sourcePoint" />
            <mxPoint x="200" y="70" as="targetPoint" />
          </mxGeometry>
        </mxCell>
        <mxCell id="RKQ7zHbird5SUSdAbg0Y-131" value="" style="endArrow=none;html=1;rounded=0;entryX=0.5;entryY=1;entryDx=0;entryDy=0;exitX=0.5;exitY=0;exitDx=0;exitDy=0;" edge="1" parent="1" source="RKQ7zHbird5SUSdAbg0Y-12" target="RKQ7zHbird5SUSdAbg0Y-114">
          <mxGeometry width="50" height="50" relative="1" as="geometry">
            <mxPoint x="150" y="120" as="sourcePoint" />
            <mxPoint x="200" y="70" as="targetPoint" />
          </mxGeometry>
        </mxCell>
        <mxCell id="RKQ7zHbird5SUSdAbg0Y-132" value="bookings" style="whiteSpace=wrap;html=1;align=center;" vertex="1" parent="1">
          <mxGeometry x="1010.0026722165039" y="-1010" width="100" height="40" as="geometry" />
        </mxCell>
        <mxCell id="RKQ7zHbird5SUSdAbg0Y-133" value="ID" style="ellipse;whiteSpace=wrap;html=1;align=center;fontStyle=4;" vertex="1" parent="1">
          <mxGeometry x="940" y="-1090" width="70" height="30" as="geometry" />
        </mxCell>
        <mxCell id="RKQ7zHbird5SUSdAbg0Y-134" value="booking_reference" style="ellipse;whiteSpace=wrap;html=1;align=center;" vertex="1" parent="1">
          <mxGeometry x="1155" y="-1020" width="125" height="40" as="geometry" />
        </mxCell>
        <mxCell id="RKQ7zHbird5SUSdAbg0Y-135" value="travel_class" style="ellipse;whiteSpace=wrap;html=1;align=center;rotation=15;" vertex="1" parent="1">
          <mxGeometry x="1140.0026722165037" y="-955" width="100" height="40" as="geometry" />
        </mxCell>
        <mxCell id="RKQ7zHbird5SUSdAbg0Y-136" value="" style="endArrow=none;html=1;rounded=0;entryX=0;entryY=0.5;entryDx=0;entryDy=0;exitX=1;exitY=0.5;exitDx=0;exitDy=0;" edge="1" parent="1" source="RKQ7zHbird5SUSdAbg0Y-132" target="RKQ7zHbird5SUSdAbg0Y-135">
          <mxGeometry width="50" height="50" relative="1" as="geometry">
            <mxPoint x="1210.0026722165037" y="-900" as="sourcePoint" />
            <mxPoint x="1020.0026722165039" y="-960" as="targetPoint" />
          </mxGeometry>
        </mxCell>
        <mxCell id="RKQ7zHbird5SUSdAbg0Y-137" value="" style="endArrow=none;html=1;rounded=0;entryX=0;entryY=0.5;entryDx=0;entryDy=0;exitX=1;exitY=0.5;exitDx=0;exitDy=0;" edge="1" parent="1" source="RKQ7zHbird5SUSdAbg0Y-132" target="RKQ7zHbird5SUSdAbg0Y-134">
          <mxGeometry width="50" height="50" relative="1" as="geometry">
            <mxPoint x="970.0026722165039" y="-910" as="sourcePoint" />
            <mxPoint x="1020.0026722165039" y="-960" as="targetPoint" />
          </mxGeometry>
        </mxCell>
        <mxCell id="RKQ7zHbird5SUSdAbg0Y-138" value="" style="endArrow=none;html=1;rounded=0;entryX=0;entryY=1;entryDx=0;entryDy=0;exitX=0.5;exitY=0;exitDx=0;exitDy=0;" edge="1" parent="1" source="RKQ7zHbird5SUSdAbg0Y-132" target="RKQ7zHbird5SUSdAbg0Y-168">
          <mxGeometry width="50" height="50" relative="1" as="geometry">
            <mxPoint x="970.0026722165039" y="-910" as="sourcePoint" />
            <mxPoint x="1260.0026722165037" y="-1030" as="targetPoint" />
          </mxGeometry>
        </mxCell>
        <mxCell id="RKQ7zHbird5SUSdAbg0Y-139" value="" style="endArrow=none;html=1;rounded=0;entryX=0.5;entryY=1;entryDx=0;entryDy=0;exitX=0.5;exitY=0;exitDx=0;exitDy=0;" edge="1" parent="1" source="RKQ7zHbird5SUSdAbg0Y-132" target="RKQ7zHbird5SUSdAbg0Y-167">
          <mxGeometry width="50" height="50" relative="1" as="geometry">
            <mxPoint x="980.0026722165039" y="-890" as="sourcePoint" />
            <mxPoint x="1155.0026722165037" y="-1030" as="targetPoint" />
          </mxGeometry>
        </mxCell>
        <mxCell id="RKQ7zHbird5SUSdAbg0Y-140" value="" style="endArrow=none;html=1;rounded=0;entryX=0.5;entryY=1;entryDx=0;entryDy=0;exitX=0.5;exitY=0;exitDx=0;exitDy=0;" edge="1" parent="1" source="RKQ7zHbird5SUSdAbg0Y-132" target="RKQ7zHbird5SUSdAbg0Y-133">
          <mxGeometry width="50" height="50" relative="1" as="geometry">
            <mxPoint x="855.0026722165038" y="-780" as="sourcePoint" />
            <mxPoint x="905.0026722165038" y="-830" as="targetPoint" />
          </mxGeometry>
        </mxCell>
        <mxCell id="RKQ7zHbird5SUSdAbg0Y-141" value="status" style="ellipse;whiteSpace=wrap;html=1;align=center;" vertex="1" parent="1">
          <mxGeometry x="860.0026722165039" y="-940" width="100" height="40" as="geometry" />
        </mxCell>
        <mxCell id="RKQ7zHbird5SUSdAbg0Y-142" value="total_price" style="ellipse;whiteSpace=wrap;html=1;align=center;" vertex="1" parent="1">
          <mxGeometry x="925.0026722165037" y="-900" width="100" height="40" as="geometry" />
        </mxCell>
        <mxCell id="RKQ7zHbird5SUSdAbg0Y-148" value="passengers" style="ellipse;whiteSpace=wrap;html=1;align=center;" vertex="1" parent="1">
          <mxGeometry x="1050.0026722165037" y="-910" width="100" height="40" as="geometry" />
        </mxCell>
        <mxCell id="RKQ7zHbird5SUSdAbg0Y-151" value="updated_at" style="ellipse;whiteSpace=wrap;html=1;align=center;" vertex="1" parent="1">
          <mxGeometry x="860.0026722165038" y="-995" width="100" height="40" as="geometry" />
        </mxCell>
        <mxCell id="RKQ7zHbird5SUSdAbg0Y-152" value="created_at" style="ellipse;whiteSpace=wrap;html=1;align=center;" vertex="1" parent="1">
          <mxGeometry x="860.0026722165038" y="-1050" width="100" height="40" as="geometry" />
        </mxCell>
        <mxCell id="RKQ7zHbird5SUSdAbg0Y-156" value="" style="endArrow=none;html=1;rounded=0;entryX=0.5;entryY=0;entryDx=0;entryDy=0;exitX=0.5;exitY=1;exitDx=0;exitDy=0;" edge="1" parent="1" source="RKQ7zHbird5SUSdAbg0Y-132" target="RKQ7zHbird5SUSdAbg0Y-142">
          <mxGeometry width="50" height="50" relative="1" as="geometry">
            <mxPoint x="980.0026722165039" y="-770" as="sourcePoint" />
            <mxPoint x="1030.002672216504" y="-820" as="targetPoint" />
          </mxGeometry>
        </mxCell>
        <mxCell id="RKQ7zHbird5SUSdAbg0Y-157" value="" style="endArrow=none;html=1;rounded=0;entryX=0.5;entryY=0;entryDx=0;entryDy=0;" edge="1" parent="1" target="RKQ7zHbird5SUSdAbg0Y-148">
          <mxGeometry width="50" height="50" relative="1" as="geometry">
            <mxPoint x="1060" y="-970" as="sourcePoint" />
            <mxPoint x="1030.002672216504" y="-820" as="targetPoint" />
          </mxGeometry>
        </mxCell>
        <mxCell id="RKQ7zHbird5SUSdAbg0Y-159" value="" style="endArrow=none;html=1;rounded=0;entryX=1;entryY=0.5;entryDx=0;entryDy=0;exitX=0;exitY=0.5;exitDx=0;exitDy=0;" edge="1" parent="1" source="RKQ7zHbird5SUSdAbg0Y-132" target="RKQ7zHbird5SUSdAbg0Y-151">
          <mxGeometry width="50" height="50" relative="1" as="geometry">
            <mxPoint x="980.0026722165039" y="-770" as="sourcePoint" />
            <mxPoint x="1030.002672216504" y="-820" as="targetPoint" />
          </mxGeometry>
        </mxCell>
        <mxCell id="RKQ7zHbird5SUSdAbg0Y-160" value="" style="endArrow=none;html=1;rounded=0;entryX=0.438;entryY=0.001;entryDx=0;entryDy=0;entryPerimeter=0;exitX=0.5;exitY=1;exitDx=0;exitDy=0;" edge="1" parent="1" source="RKQ7zHbird5SUSdAbg0Y-132" target="RKQ7zHbird5SUSdAbg0Y-141">
          <mxGeometry width="50" height="50" relative="1" as="geometry">
            <mxPoint x="980.0026722165039" y="-770" as="sourcePoint" />
            <mxPoint x="1030.002672216504" y="-820" as="targetPoint" />
          </mxGeometry>
        </mxCell>
        <mxCell id="RKQ7zHbird5SUSdAbg0Y-162" value="" style="endArrow=none;html=1;rounded=0;entryX=1;entryY=0.5;entryDx=0;entryDy=0;exitX=0.5;exitY=0;exitDx=0;exitDy=0;" edge="1" parent="1" source="RKQ7zHbird5SUSdAbg0Y-132" target="RKQ7zHbird5SUSdAbg0Y-152">
          <mxGeometry width="50" height="50" relative="1" as="geometry">
            <mxPoint x="980.0026722165039" y="-770" as="sourcePoint" />
            <mxPoint x="1030.002672216504" y="-820" as="targetPoint" />
          </mxGeometry>
        </mxCell>
        <mxCell id="RKQ7zHbird5SUSdAbg0Y-167" value="&lt;span style=&quot;border-bottom: 1px dotted&quot;&gt;flight_id&lt;/span&gt;" style="ellipse;whiteSpace=wrap;html=1;align=center;" vertex="1" parent="1">
          <mxGeometry x="1030" y="-1095" width="100" height="40" as="geometry" />
        </mxCell>
        <mxCell id="RKQ7zHbird5SUSdAbg0Y-168" value="&lt;span style=&quot;border-bottom: 1px dotted&quot;&gt;user_id&lt;/span&gt;" style="ellipse;whiteSpace=wrap;html=1;align=center;" vertex="1" parent="1">
          <mxGeometry x="1140" y="-1090" width="100" height="40" as="geometry" />
        </mxCell>
        <mxCell id="RKQ7zHbird5SUSdAbg0Y-170" value="passengers" style="whiteSpace=wrap;html=1;align=center;" vertex="1" parent="1">
          <mxGeometry x="1480" y="-1010" width="120" height="40" as="geometry" />
        </mxCell>
        <mxCell id="RKQ7zHbird5SUSdAbg0Y-171" value="first_name" style="ellipse;whiteSpace=wrap;html=1;align=center;" vertex="1" parent="1">
          <mxGeometry x="1440" y="-1095" width="100" height="40" as="geometry" />
        </mxCell>
        <mxCell id="RKQ7zHbird5SUSdAbg0Y-172" value="passport_number" style="ellipse;whiteSpace=wrap;html=1;align=center;" vertex="1" parent="1">
          <mxGeometry x="1580" y="-900" width="100" height="40" as="geometry" />
        </mxCell>
        <mxCell id="RKQ7zHbird5SUSdAbg0Y-173" value="date_of_birth" style="ellipse;whiteSpace=wrap;html=1;align=center;" vertex="1" parent="1">
          <mxGeometry x="1470" y="-890" width="100" height="40" as="geometry" />
        </mxCell>
        <mxCell id="RKQ7zHbird5SUSdAbg0Y-174" value="ID" style="ellipse;whiteSpace=wrap;html=1;align=center;fontStyle=4;" vertex="1" parent="1">
          <mxGeometry x="1310" y="-1090" width="100" height="40" as="geometry" />
        </mxCell>
        <mxCell id="RKQ7zHbird5SUSdAbg0Y-175" value="last_name" style="ellipse;whiteSpace=wrap;html=1;align=center;" vertex="1" parent="1">
          <mxGeometry x="1570" y="-1090" width="100" height="40" as="geometry" />
        </mxCell>
        <mxCell id="RKQ7zHbird5SUSdAbg0Y-176" value="" style="endArrow=none;html=1;rounded=0;entryX=0.5;entryY=0;entryDx=0;entryDy=0;exitX=0.5;exitY=1;exitDx=0;exitDy=0;" edge="1" parent="1" source="RKQ7zHbird5SUSdAbg0Y-175" target="RKQ7zHbird5SUSdAbg0Y-170">
          <mxGeometry width="50" height="50" relative="1" as="geometry">
            <mxPoint x="1325" y="-730" as="sourcePoint" />
            <mxPoint x="1375" y="-780" as="targetPoint" />
          </mxGeometry>
        </mxCell>
        <mxCell id="RKQ7zHbird5SUSdAbg0Y-177" value="" style="endArrow=none;html=1;rounded=0;entryX=0.5;entryY=1;entryDx=0;entryDy=0;exitX=0.5;exitY=0;exitDx=0;exitDy=0;" edge="1" parent="1" source="RKQ7zHbird5SUSdAbg0Y-172" target="RKQ7zHbird5SUSdAbg0Y-170">
          <mxGeometry width="50" height="50" relative="1" as="geometry">
            <mxPoint x="1325" y="-730" as="sourcePoint" />
            <mxPoint x="1375" y="-780" as="targetPoint" />
          </mxGeometry>
        </mxCell>
        <mxCell id="RKQ7zHbird5SUSdAbg0Y-178" value="" style="endArrow=none;html=1;rounded=0;entryX=0.5;entryY=0;entryDx=0;entryDy=0;exitX=0.5;exitY=1;exitDx=0;exitDy=0;" edge="1" parent="1" source="RKQ7zHbird5SUSdAbg0Y-170" target="RKQ7zHbird5SUSdAbg0Y-173">
          <mxGeometry width="50" height="50" relative="1" as="geometry">
            <mxPoint x="1325" y="-730" as="sourcePoint" />
            <mxPoint x="1375" y="-780" as="targetPoint" />
          </mxGeometry>
        </mxCell>
        <mxCell id="RKQ7zHbird5SUSdAbg0Y-179" value="" style="endArrow=none;html=1;rounded=0;entryX=1;entryY=1;entryDx=0;entryDy=0;exitX=0.5;exitY=0;exitDx=0;exitDy=0;" edge="1" parent="1" source="RKQ7zHbird5SUSdAbg0Y-170" target="RKQ7zHbird5SUSdAbg0Y-174">
          <mxGeometry width="50" height="50" relative="1" as="geometry">
            <mxPoint x="1620" y="-970" as="sourcePoint" />
            <mxPoint x="1375" y="-780" as="targetPoint" />
          </mxGeometry>
        </mxCell>
        <mxCell id="RKQ7zHbird5SUSdAbg0Y-180" value="" style="endArrow=none;html=1;rounded=0;entryX=1;entryY=0.5;entryDx=0;entryDy=0;exitX=0;exitY=0.5;exitDx=0;exitDy=0;" edge="1" parent="1" source="RKQ7zHbird5SUSdAbg0Y-170" target="RKQ7zHbird5SUSdAbg0Y-187">
          <mxGeometry width="50" height="50" relative="1" as="geometry">
            <mxPoint x="1325" y="-730" as="sourcePoint" />
            <mxPoint x="1475" y="-940" as="targetPoint" />
          </mxGeometry>
        </mxCell>
        <mxCell id="RKQ7zHbird5SUSdAbg0Y-181" value="" style="endArrow=none;html=1;rounded=0;entryX=0.5;entryY=1;entryDx=0;entryDy=0;exitX=0.5;exitY=0;exitDx=0;exitDy=0;" edge="1" parent="1" source="RKQ7zHbird5SUSdAbg0Y-170" target="RKQ7zHbird5SUSdAbg0Y-171">
          <mxGeometry width="50" height="50" relative="1" as="geometry">
            <mxPoint x="1325" y="-730" as="sourcePoint" />
            <mxPoint x="1375" y="-780" as="targetPoint" />
          </mxGeometry>
        </mxCell>
        <mxCell id="RKQ7zHbird5SUSdAbg0Y-182" value="" style="endArrow=none;html=1;rounded=0;entryX=1;entryY=0.5;entryDx=0;entryDy=0;exitX=0;exitY=0.5;exitDx=0;exitDy=0;" edge="1" parent="1" source="RKQ7zHbird5SUSdAbg0Y-170" target="RKQ7zHbird5SUSdAbg0Y-183">
          <mxGeometry width="50" height="50" relative="1" as="geometry">
            <mxPoint x="1615" y="-930" as="sourcePoint" />
            <mxPoint x="1535" y="-870" as="targetPoint" />
          </mxGeometry>
        </mxCell>
        <mxCell id="RKQ7zHbird5SUSdAbg0Y-183" value="&lt;span style=&quot;border-bottom: 1px dotted&quot;&gt;booking_id&lt;/span&gt;" style="ellipse;whiteSpace=wrap;html=1;align=center;" vertex="1" parent="1">
          <mxGeometry x="1300" y="-960" width="100" height="40" as="geometry" />
        </mxCell>
        <mxCell id="RKQ7zHbird5SUSdAbg0Y-186" value="meal_preference" style="ellipse;whiteSpace=wrap;html=1;align=center;rotation=-30;" vertex="1" parent="1">
          <mxGeometry x="1360" y="-900" width="100" height="40" as="geometry" />
        </mxCell>
        <mxCell id="RKQ7zHbird5SUSdAbg0Y-187" value="special_assistance" style="ellipse;whiteSpace=wrap;html=1;align=center;" vertex="1" parent="1">
          <mxGeometry x="1295" y="-1020" width="130" height="40" as="geometry" />
        </mxCell>
        <mxCell id="RKQ7zHbird5SUSdAbg0Y-188" value="" style="endArrow=none;html=1;rounded=0;entryX=0.5;entryY=1;entryDx=0;entryDy=0;exitX=1;exitY=0.5;exitDx=0;exitDy=0;" edge="1" parent="1" source="RKQ7zHbird5SUSdAbg0Y-186" target="RKQ7zHbird5SUSdAbg0Y-170">
          <mxGeometry width="50" height="50" relative="1" as="geometry">
            <mxPoint x="1365" y="-770" as="sourcePoint" />
            <mxPoint x="1375" y="-760" as="targetPoint" />
          </mxGeometry>
        </mxCell>
        <mxCell id="RKQ7zHbird5SUSdAbg0Y-191" value="payments" style="whiteSpace=wrap;html=1;align=center;" vertex="1" parent="1">
          <mxGeometry x="1052.5" y="-727.5" width="120" height="40" as="geometry" />
        </mxCell>
        <mxCell id="RKQ7zHbird5SUSdAbg0Y-192" value="status" style="ellipse;whiteSpace=wrap;html=1;align=center;" vertex="1" parent="1">
          <mxGeometry x="1012.5" y="-812.5" width="100" height="40" as="geometry" />
        </mxCell>
        <mxCell id="RKQ7zHbird5SUSdAbg0Y-193" value="payment_method" style="ellipse;whiteSpace=wrap;html=1;align=center;" vertex="1" parent="1">
          <mxGeometry x="1167.5" y="-645" width="100" height="40" as="geometry" />
        </mxCell>
        <mxCell id="RKQ7zHbird5SUSdAbg0Y-194" value="amount" style="ellipse;whiteSpace=wrap;html=1;align=center;" vertex="1" parent="1">
          <mxGeometry x="1055" y="-630" width="100" height="40" as="geometry" />
        </mxCell>
        <mxCell id="RKQ7zHbird5SUSdAbg0Y-195" value="ID" style="ellipse;whiteSpace=wrap;html=1;align=center;fontStyle=4;" vertex="1" parent="1">
          <mxGeometry x="882.5" y="-807.5" width="100" height="40" as="geometry" />
        </mxCell>
        <mxCell id="RKQ7zHbird5SUSdAbg0Y-196" value="transaction_id" style="ellipse;whiteSpace=wrap;html=1;align=center;" vertex="1" parent="1">
          <mxGeometry x="1142.5" y="-807.5" width="100" height="40" as="geometry" />
        </mxCell>
        <mxCell id="RKQ7zHbird5SUSdAbg0Y-197" value="" style="endArrow=none;html=1;rounded=0;entryX=0.5;entryY=0;entryDx=0;entryDy=0;exitX=0.5;exitY=1;exitDx=0;exitDy=0;" edge="1" parent="1" source="RKQ7zHbird5SUSdAbg0Y-196" target="RKQ7zHbird5SUSdAbg0Y-191">
          <mxGeometry width="50" height="50" relative="1" as="geometry">
            <mxPoint x="897.5" y="-447.5" as="sourcePoint" />
            <mxPoint x="947.5" y="-497.5" as="targetPoint" />
          </mxGeometry>
        </mxCell>
        <mxCell id="RKQ7zHbird5SUSdAbg0Y-198" value="" style="endArrow=none;html=1;rounded=0;entryX=0.5;entryY=1;entryDx=0;entryDy=0;exitX=0.5;exitY=0;exitDx=0;exitDy=0;" edge="1" parent="1" source="RKQ7zHbird5SUSdAbg0Y-193" target="RKQ7zHbird5SUSdAbg0Y-191">
          <mxGeometry width="50" height="50" relative="1" as="geometry">
            <mxPoint x="897.5" y="-447.5" as="sourcePoint" />
            <mxPoint x="947.5" y="-497.5" as="targetPoint" />
          </mxGeometry>
        </mxCell>
        <mxCell id="RKQ7zHbird5SUSdAbg0Y-199" value="" style="endArrow=none;html=1;rounded=0;entryX=0.5;entryY=0;entryDx=0;entryDy=0;exitX=0.5;exitY=1;exitDx=0;exitDy=0;" edge="1" parent="1" source="RKQ7zHbird5SUSdAbg0Y-191" target="RKQ7zHbird5SUSdAbg0Y-194">
          <mxGeometry width="50" height="50" relative="1" as="geometry">
            <mxPoint x="897.5" y="-447.5" as="sourcePoint" />
            <mxPoint x="947.5" y="-497.5" as="targetPoint" />
          </mxGeometry>
        </mxCell>
        <mxCell id="RKQ7zHbird5SUSdAbg0Y-200" value="" style="endArrow=none;html=1;rounded=0;entryX=1;entryY=1;entryDx=0;entryDy=0;exitX=0.5;exitY=0;exitDx=0;exitDy=0;" edge="1" parent="1" source="RKQ7zHbird5SUSdAbg0Y-191" target="RKQ7zHbird5SUSdAbg0Y-195">
          <mxGeometry width="50" height="50" relative="1" as="geometry">
            <mxPoint x="1192.5" y="-687.5" as="sourcePoint" />
            <mxPoint x="947.5" y="-497.5" as="targetPoint" />
          </mxGeometry>
        </mxCell>
        <mxCell id="RKQ7zHbird5SUSdAbg0Y-201" value="" style="endArrow=none;html=1;rounded=0;entryX=1;entryY=0.5;entryDx=0;entryDy=0;exitX=0;exitY=0.5;exitDx=0;exitDy=0;" edge="1" parent="1" source="RKQ7zHbird5SUSdAbg0Y-191" target="RKQ7zHbird5SUSdAbg0Y-206">
          <mxGeometry width="50" height="50" relative="1" as="geometry">
            <mxPoint x="897.5" y="-447.5" as="sourcePoint" />
            <mxPoint x="1047.5" y="-657.5" as="targetPoint" />
          </mxGeometry>
        </mxCell>
        <mxCell id="RKQ7zHbird5SUSdAbg0Y-202" value="" style="endArrow=none;html=1;rounded=0;entryX=0.5;entryY=1;entryDx=0;entryDy=0;exitX=0.5;exitY=0;exitDx=0;exitDy=0;" edge="1" parent="1" source="RKQ7zHbird5SUSdAbg0Y-191" target="RKQ7zHbird5SUSdAbg0Y-192">
          <mxGeometry width="50" height="50" relative="1" as="geometry">
            <mxPoint x="897.5" y="-447.5" as="sourcePoint" />
            <mxPoint x="947.5" y="-497.5" as="targetPoint" />
          </mxGeometry>
        </mxCell>
        <mxCell id="RKQ7zHbird5SUSdAbg0Y-203" value="" style="endArrow=none;html=1;rounded=0;entryX=1;entryY=0.5;entryDx=0;entryDy=0;exitX=0;exitY=0.5;exitDx=0;exitDy=0;" edge="1" parent="1" source="RKQ7zHbird5SUSdAbg0Y-191" target="RKQ7zHbird5SUSdAbg0Y-204">
          <mxGeometry width="50" height="50" relative="1" as="geometry">
            <mxPoint x="1187.5" y="-647.5" as="sourcePoint" />
            <mxPoint x="1107.5" y="-587.5" as="targetPoint" />
          </mxGeometry>
        </mxCell>
        <mxCell id="RKQ7zHbird5SUSdAbg0Y-204" value="&lt;span style=&quot;border-bottom: 1px dotted&quot;&gt;booking_id&lt;/span&gt;" style="ellipse;whiteSpace=wrap;html=1;align=center;" vertex="1" parent="1">
          <mxGeometry x="872.5" y="-677.5" width="100" height="40" as="geometry" />
        </mxCell>
        <mxCell id="RKQ7zHbird5SUSdAbg0Y-206" value="created_at" style="ellipse;whiteSpace=wrap;html=1;align=center;" vertex="1" parent="1">
          <mxGeometry x="867.5" y="-737.5" width="130" height="40" as="geometry" />
        </mxCell>
        <mxCell id="RKQ7zHbird5SUSdAbg0Y-208" value="hotels" style="whiteSpace=wrap;html=1;align=center;" vertex="1" parent="1">
          <mxGeometry x="1430" y="-700" width="100" height="40" as="geometry" />
        </mxCell>
        <mxCell id="RKQ7zHbird5SUSdAbg0Y-209" value="ID" style="ellipse;whiteSpace=wrap;html=1;align=center;fontStyle=4;" vertex="1" parent="1">
          <mxGeometry x="1359.997327783496" y="-780" width="70" height="30" as="geometry" />
        </mxCell>
        <mxCell id="RKQ7zHbird5SUSdAbg0Y-210" value="description" style="ellipse;whiteSpace=wrap;html=1;align=center;" vertex="1" parent="1">
          <mxGeometry x="1575" y="-710" width="95" height="40" as="geometry" />
        </mxCell>
        <mxCell id="RKQ7zHbird5SUSdAbg0Y-211" value="amenities" style="ellipse;whiteSpace=wrap;html=1;align=center;rotation=15;" vertex="1" parent="1">
          <mxGeometry x="1560" y="-645" width="100" height="40" as="geometry" />
        </mxCell>
        <mxCell id="RKQ7zHbird5SUSdAbg0Y-212" value="" style="endArrow=none;html=1;rounded=0;entryX=0;entryY=0.5;entryDx=0;entryDy=0;exitX=1;exitY=0.5;exitDx=0;exitDy=0;" edge="1" parent="1" source="RKQ7zHbird5SUSdAbg0Y-208" target="RKQ7zHbird5SUSdAbg0Y-211">
          <mxGeometry width="50" height="50" relative="1" as="geometry">
            <mxPoint x="1630" y="-590" as="sourcePoint" />
            <mxPoint x="1440" y="-650" as="targetPoint" />
          </mxGeometry>
        </mxCell>
        <mxCell id="RKQ7zHbird5SUSdAbg0Y-213" value="" style="endArrow=none;html=1;rounded=0;entryX=0;entryY=0.5;entryDx=0;entryDy=0;exitX=1;exitY=0.5;exitDx=0;exitDy=0;" edge="1" parent="1" source="RKQ7zHbird5SUSdAbg0Y-208" target="RKQ7zHbird5SUSdAbg0Y-210">
          <mxGeometry width="50" height="50" relative="1" as="geometry">
            <mxPoint x="1390" y="-600" as="sourcePoint" />
            <mxPoint x="1440" y="-650" as="targetPoint" />
          </mxGeometry>
        </mxCell>
        <mxCell id="RKQ7zHbird5SUSdAbg0Y-214" value="" style="endArrow=none;html=1;rounded=0;entryX=0;entryY=1;entryDx=0;entryDy=0;exitX=0.5;exitY=0;exitDx=0;exitDy=0;" edge="1" parent="1" source="RKQ7zHbird5SUSdAbg0Y-208" target="RKQ7zHbird5SUSdAbg0Y-228">
          <mxGeometry width="50" height="50" relative="1" as="geometry">
            <mxPoint x="1390" y="-600" as="sourcePoint" />
            <mxPoint x="1680" y="-720" as="targetPoint" />
          </mxGeometry>
        </mxCell>
        <mxCell id="RKQ7zHbird5SUSdAbg0Y-215" value="" style="endArrow=none;html=1;rounded=0;entryX=0.5;entryY=1;entryDx=0;entryDy=0;exitX=0.5;exitY=0;exitDx=0;exitDy=0;" edge="1" parent="1" source="RKQ7zHbird5SUSdAbg0Y-208" target="RKQ7zHbird5SUSdAbg0Y-227">
          <mxGeometry width="50" height="50" relative="1" as="geometry">
            <mxPoint x="1400" y="-580" as="sourcePoint" />
            <mxPoint x="1575" y="-720" as="targetPoint" />
          </mxGeometry>
        </mxCell>
        <mxCell id="RKQ7zHbird5SUSdAbg0Y-216" value="" style="endArrow=none;html=1;rounded=0;entryX=0.5;entryY=1;entryDx=0;entryDy=0;exitX=0.5;exitY=0;exitDx=0;exitDy=0;" edge="1" parent="1" source="RKQ7zHbird5SUSdAbg0Y-208" target="RKQ7zHbird5SUSdAbg0Y-209">
          <mxGeometry width="50" height="50" relative="1" as="geometry">
            <mxPoint x="1275" y="-470" as="sourcePoint" />
            <mxPoint x="1325" y="-520" as="targetPoint" />
          </mxGeometry>
        </mxCell>
        <mxCell id="RKQ7zHbird5SUSdAbg0Y-217" value="status" style="ellipse;whiteSpace=wrap;html=1;align=center;" vertex="1" parent="1">
          <mxGeometry x="1280" y="-630" width="100" height="40" as="geometry" />
        </mxCell>
        <mxCell id="RKQ7zHbird5SUSdAbg0Y-218" value="rating" style="ellipse;whiteSpace=wrap;html=1;align=center;" vertex="1" parent="1">
          <mxGeometry x="1345" y="-590" width="100" height="40" as="geometry" />
        </mxCell>
        <mxCell id="RKQ7zHbird5SUSdAbg0Y-219" value="price_per_night" style="ellipse;whiteSpace=wrap;html=1;align=center;" vertex="1" parent="1">
          <mxGeometry x="1470" y="-600" width="100" height="40" as="geometry" />
        </mxCell>
        <mxCell id="RKQ7zHbird5SUSdAbg0Y-220" value="available_rooms" style="ellipse;whiteSpace=wrap;html=1;align=center;" vertex="1" parent="1">
          <mxGeometry x="1280" y="-685" width="100" height="40" as="geometry" />
        </mxCell>
        <mxCell id="RKQ7zHbird5SUSdAbg0Y-221" value="created_at" style="ellipse;whiteSpace=wrap;html=1;align=center;" vertex="1" parent="1">
          <mxGeometry x="1280" y="-740" width="100" height="40" as="geometry" />
        </mxCell>
        <mxCell id="RKQ7zHbird5SUSdAbg0Y-222" value="" style="endArrow=none;html=1;rounded=0;entryX=0.5;entryY=0;entryDx=0;entryDy=0;exitX=0.5;exitY=1;exitDx=0;exitDy=0;" edge="1" parent="1" source="RKQ7zHbird5SUSdAbg0Y-208" target="RKQ7zHbird5SUSdAbg0Y-218">
          <mxGeometry width="50" height="50" relative="1" as="geometry">
            <mxPoint x="1400" y="-460" as="sourcePoint" />
            <mxPoint x="1450" y="-510" as="targetPoint" />
          </mxGeometry>
        </mxCell>
        <mxCell id="RKQ7zHbird5SUSdAbg0Y-223" value="" style="endArrow=none;html=1;rounded=0;entryX=0.5;entryY=0;entryDx=0;entryDy=0;" edge="1" parent="1" target="RKQ7zHbird5SUSdAbg0Y-219">
          <mxGeometry width="50" height="50" relative="1" as="geometry">
            <mxPoint x="1479.997327783496" y="-660" as="sourcePoint" />
            <mxPoint x="1450" y="-510" as="targetPoint" />
          </mxGeometry>
        </mxCell>
        <mxCell id="RKQ7zHbird5SUSdAbg0Y-224" value="" style="endArrow=none;html=1;rounded=0;entryX=1;entryY=0.5;entryDx=0;entryDy=0;exitX=0;exitY=0.5;exitDx=0;exitDy=0;" edge="1" parent="1" source="RKQ7zHbird5SUSdAbg0Y-208" target="RKQ7zHbird5SUSdAbg0Y-220">
          <mxGeometry width="50" height="50" relative="1" as="geometry">
            <mxPoint x="1400" y="-460" as="sourcePoint" />
            <mxPoint x="1450" y="-510" as="targetPoint" />
          </mxGeometry>
        </mxCell>
        <mxCell id="RKQ7zHbird5SUSdAbg0Y-225" value="" style="endArrow=none;html=1;rounded=0;entryX=0.438;entryY=0.001;entryDx=0;entryDy=0;entryPerimeter=0;exitX=0.5;exitY=1;exitDx=0;exitDy=0;" edge="1" parent="1" source="RKQ7zHbird5SUSdAbg0Y-208" target="RKQ7zHbird5SUSdAbg0Y-217">
          <mxGeometry width="50" height="50" relative="1" as="geometry">
            <mxPoint x="1400" y="-460" as="sourcePoint" />
            <mxPoint x="1450" y="-510" as="targetPoint" />
          </mxGeometry>
        </mxCell>
        <mxCell id="RKQ7zHbird5SUSdAbg0Y-226" value="" style="endArrow=none;html=1;rounded=0;entryX=1;entryY=0.5;entryDx=0;entryDy=0;exitX=0.5;exitY=0;exitDx=0;exitDy=0;" edge="1" parent="1" source="RKQ7zHbird5SUSdAbg0Y-208" target="RKQ7zHbird5SUSdAbg0Y-221">
          <mxGeometry width="50" height="50" relative="1" as="geometry">
            <mxPoint x="1400" y="-460" as="sourcePoint" />
            <mxPoint x="1450" y="-510" as="targetPoint" />
          </mxGeometry>
        </mxCell>
        <mxCell id="RKQ7zHbird5SUSdAbg0Y-227" value="name" style="ellipse;whiteSpace=wrap;html=1;align=center;" vertex="1" parent="1">
          <mxGeometry x="1449.997327783496" y="-785" width="100" height="40" as="geometry" />
        </mxCell>
        <mxCell id="RKQ7zHbird5SUSdAbg0Y-228" value="location" style="ellipse;whiteSpace=wrap;html=1;align=center;" vertex="1" parent="1">
          <mxGeometry x="1559.997327783496" y="-780" width="100" height="40" as="geometry" />
        </mxCell>
        <mxCell id="RKQ7zHbird5SUSdAbg0Y-229" value="hotel_facilities" style="whiteSpace=wrap;html=1;align=center;" vertex="1" parent="1">
          <mxGeometry x="982.5" y="-490" width="120" height="40" as="geometry" />
        </mxCell>
        <mxCell id="RKQ7zHbird5SUSdAbg0Y-230" value="hotel_id" style="ellipse;whiteSpace=wrap;html=1;align=center;" vertex="1" parent="1">
          <mxGeometry x="972.5" y="-580" width="100" height="40" as="geometry" />
        </mxCell>
        <mxCell id="RKQ7zHbird5SUSdAbg0Y-231" value="description" style="ellipse;whiteSpace=wrap;html=1;align=center;" vertex="1" parent="1">
          <mxGeometry x="860" y="-495" width="100" height="40" as="geometry" />
        </mxCell>
        <mxCell id="RKQ7zHbird5SUSdAbg0Y-234" value="ID" style="ellipse;whiteSpace=wrap;html=1;align=center;fontStyle=4;" vertex="1" parent="1">
          <mxGeometry x="860" y="-570" width="100" height="40" as="geometry" />
        </mxCell>
        <mxCell id="RKQ7zHbird5SUSdAbg0Y-235" value="facility_name" style="ellipse;whiteSpace=wrap;html=1;align=center;" vertex="1" parent="1">
          <mxGeometry x="1090" y="-580" width="100" height="40" as="geometry" />
        </mxCell>
        <mxCell id="RKQ7zHbird5SUSdAbg0Y-236" value="" style="endArrow=none;html=1;rounded=0;entryX=0.5;entryY=0;entryDx=0;entryDy=0;exitX=0;exitY=0.5;exitDx=0;exitDy=0;" edge="1" parent="1" source="RKQ7zHbird5SUSdAbg0Y-235" target="RKQ7zHbird5SUSdAbg0Y-229">
          <mxGeometry width="50" height="50" relative="1" as="geometry">
            <mxPoint x="835" y="-130" as="sourcePoint" />
            <mxPoint x="885" y="-180" as="targetPoint" />
          </mxGeometry>
        </mxCell>
        <mxCell id="RKQ7zHbird5SUSdAbg0Y-239" value="" style="endArrow=none;html=1;rounded=0;entryX=1;entryY=1;entryDx=0;entryDy=0;exitX=0.5;exitY=0;exitDx=0;exitDy=0;" edge="1" parent="1" source="RKQ7zHbird5SUSdAbg0Y-229" target="RKQ7zHbird5SUSdAbg0Y-234">
          <mxGeometry width="50" height="50" relative="1" as="geometry">
            <mxPoint x="1130" y="-370" as="sourcePoint" />
            <mxPoint x="885" y="-180" as="targetPoint" />
          </mxGeometry>
        </mxCell>
        <mxCell id="RKQ7zHbird5SUSdAbg0Y-240" value="" style="endArrow=none;html=1;rounded=0;entryX=1;entryY=0.5;entryDx=0;entryDy=0;exitX=0;exitY=0.5;exitDx=0;exitDy=0;" edge="1" parent="1" source="RKQ7zHbird5SUSdAbg0Y-229" target="RKQ7zHbird5SUSdAbg0Y-231">
          <mxGeometry width="50" height="50" relative="1" as="geometry">
            <mxPoint x="835" y="-130" as="sourcePoint" />
            <mxPoint x="885" y="-180" as="targetPoint" />
          </mxGeometry>
        </mxCell>
        <mxCell id="RKQ7zHbird5SUSdAbg0Y-241" value="" style="endArrow=none;html=1;rounded=0;entryX=0.5;entryY=1;entryDx=0;entryDy=0;exitX=0.5;exitY=0;exitDx=0;exitDy=0;" edge="1" parent="1" source="RKQ7zHbird5SUSdAbg0Y-229" target="RKQ7zHbird5SUSdAbg0Y-230">
          <mxGeometry width="50" height="50" relative="1" as="geometry">
            <mxPoint x="835" y="-130" as="sourcePoint" />
            <mxPoint x="885" y="-180" as="targetPoint" />
          </mxGeometry>
        </mxCell>
        <mxCell id="RKQ7zHbird5SUSdAbg0Y-242" value="hotel_photos" style="whiteSpace=wrap;html=1;align=center;" vertex="1" parent="1">
          <mxGeometry x="1047.5" y="-180" width="120" height="40" as="geometry" />
        </mxCell>
        <mxCell id="RKQ7zHbird5SUSdAbg0Y-243" value="photo_url" style="ellipse;whiteSpace=wrap;html=1;align=center;" vertex="1" parent="1">
          <mxGeometry x="987.5" y="-300" width="100" height="40" as="geometry" />
        </mxCell>
        <mxCell id="RKQ7zHbird5SUSdAbg0Y-244" value="sort_order" style="ellipse;whiteSpace=wrap;html=1;align=center;" vertex="1" parent="1">
          <mxGeometry x="877.5" y="-230" width="100" height="40" as="geometry" />
        </mxCell>
        <mxCell id="RKQ7zHbird5SUSdAbg0Y-245" value="caption" style="ellipse;whiteSpace=wrap;html=1;align=center;" vertex="1" parent="1">
          <mxGeometry x="877.5" y="-180" width="100" height="40" as="geometry" />
        </mxCell>
        <mxCell id="RKQ7zHbird5SUSdAbg0Y-247" value="ID" style="ellipse;whiteSpace=wrap;html=1;align=center;fontStyle=4;" vertex="1" parent="1">
          <mxGeometry x="877.5" y="-290" width="100" height="40" as="geometry" />
        </mxCell>
        <mxCell id="RKQ7zHbird5SUSdAbg0Y-248" value="hotel_id" style="ellipse;whiteSpace=wrap;html=1;align=center;" vertex="1" parent="1">
          <mxGeometry x="1090" y="-310" width="100" height="40" as="geometry" />
        </mxCell>
        <mxCell id="RKQ7zHbird5SUSdAbg0Y-249" value="" style="endArrow=none;html=1;rounded=0;entryX=0.5;entryY=0;entryDx=0;entryDy=0;exitX=0.5;exitY=1;exitDx=0;exitDy=0;" edge="1" parent="1" source="RKQ7zHbird5SUSdAbg0Y-248" target="RKQ7zHbird5SUSdAbg0Y-242">
          <mxGeometry width="50" height="50" relative="1" as="geometry">
            <mxPoint x="817.5" y="60" as="sourcePoint" />
            <mxPoint x="867.5" y="10" as="targetPoint" />
          </mxGeometry>
        </mxCell>
        <mxCell id="RKQ7zHbird5SUSdAbg0Y-250" value="" style="endArrow=none;html=1;rounded=0;entryX=0;entryY=0.5;entryDx=0;entryDy=0;exitX=1;exitY=0.5;exitDx=0;exitDy=0;" edge="1" parent="1" source="RKQ7zHbird5SUSdAbg0Y-245" target="RKQ7zHbird5SUSdAbg0Y-242">
          <mxGeometry width="50" height="50" relative="1" as="geometry">
            <mxPoint x="817.5" y="60" as="sourcePoint" />
            <mxPoint x="867.5" y="10" as="targetPoint" />
          </mxGeometry>
        </mxCell>
        <mxCell id="RKQ7zHbird5SUSdAbg0Y-252" value="" style="endArrow=none;html=1;rounded=0;entryX=1;entryY=1;entryDx=0;entryDy=0;exitX=0.5;exitY=0;exitDx=0;exitDy=0;" edge="1" parent="1" source="RKQ7zHbird5SUSdAbg0Y-242" target="RKQ7zHbird5SUSdAbg0Y-247">
          <mxGeometry width="50" height="50" relative="1" as="geometry">
            <mxPoint x="1112.5" y="-180" as="sourcePoint" />
            <mxPoint x="867.5" y="10" as="targetPoint" />
          </mxGeometry>
        </mxCell>
        <mxCell id="RKQ7zHbird5SUSdAbg0Y-253" value="" style="endArrow=none;html=1;rounded=0;entryX=1;entryY=0.5;entryDx=0;entryDy=0;exitX=0;exitY=0.5;exitDx=0;exitDy=0;" edge="1" parent="1" source="RKQ7zHbird5SUSdAbg0Y-242" target="RKQ7zHbird5SUSdAbg0Y-244">
          <mxGeometry width="50" height="50" relative="1" as="geometry">
            <mxPoint x="817.5" y="60" as="sourcePoint" />
            <mxPoint x="867.5" y="10" as="targetPoint" />
          </mxGeometry>
        </mxCell>
        <mxCell id="RKQ7zHbird5SUSdAbg0Y-254" value="" style="endArrow=none;html=1;rounded=0;entryX=0.5;entryY=1;entryDx=0;entryDy=0;exitX=0.5;exitY=0;exitDx=0;exitDy=0;" edge="1" parent="1" source="RKQ7zHbird5SUSdAbg0Y-242" target="RKQ7zHbird5SUSdAbg0Y-243">
          <mxGeometry width="50" height="50" relative="1" as="geometry">
            <mxPoint x="817.5" y="60" as="sourcePoint" />
            <mxPoint x="867.5" y="10" as="targetPoint" />
          </mxGeometry>
        </mxCell>
        <mxCell id="RKQ7zHbird5SUSdAbg0Y-255" value="hotel_reviews" style="whiteSpace=wrap;html=1;align=center;" vertex="1" parent="1">
          <mxGeometry x="1441.25" y="-200" width="120" height="40" as="geometry" />
        </mxCell>
        <mxCell id="RKQ7zHbird5SUSdAbg0Y-256" value="hotel_id" style="ellipse;whiteSpace=wrap;html=1;align=center;" vertex="1" parent="1">
          <mxGeometry x="1426.25" y="-300" width="100" height="40" as="geometry" />
        </mxCell>
        <mxCell id="RKQ7zHbird5SUSdAbg0Y-257" value="rating" style="ellipse;whiteSpace=wrap;html=1;align=center;" vertex="1" parent="1">
          <mxGeometry x="1510" y="-90" width="100" height="40" as="geometry" />
        </mxCell>
        <mxCell id="RKQ7zHbird5SUSdAbg0Y-258" value="comment" style="ellipse;whiteSpace=wrap;html=1;align=center;" vertex="1" parent="1">
          <mxGeometry x="1350" y="-120" width="100" height="40" as="geometry" />
        </mxCell>
        <mxCell id="RKQ7zHbird5SUSdAbg0Y-259" value="ID" style="ellipse;whiteSpace=wrap;html=1;align=center;fontStyle=4;" vertex="1" parent="1">
          <mxGeometry x="1303.75" y="-280" width="100" height="40" as="geometry" />
        </mxCell>
        <mxCell id="RKQ7zHbird5SUSdAbg0Y-260" value="user_id" style="ellipse;whiteSpace=wrap;html=1;align=center;" vertex="1" parent="1">
          <mxGeometry x="1572.5" y="-300" width="100" height="40" as="geometry" />
        </mxCell>
        <mxCell id="RKQ7zHbird5SUSdAbg0Y-261" value="" style="endArrow=none;html=1;rounded=0;entryX=0.5;entryY=0;entryDx=0;entryDy=0;exitX=0.5;exitY=1;exitDx=0;exitDy=0;" edge="1" parent="1" source="RKQ7zHbird5SUSdAbg0Y-260" target="RKQ7zHbird5SUSdAbg0Y-255">
          <mxGeometry width="50" height="50" relative="1" as="geometry">
            <mxPoint x="1583.75" y="-250" as="sourcePoint" />
            <mxPoint x="1318.75" y="20" as="targetPoint" />
          </mxGeometry>
        </mxCell>
        <mxCell id="RKQ7zHbird5SUSdAbg0Y-262" value="" style="endArrow=none;html=1;rounded=0;entryX=0.5;entryY=1;entryDx=0;entryDy=0;exitX=0.5;exitY=0;exitDx=0;exitDy=0;" edge="1" parent="1" source="RKQ7zHbird5SUSdAbg0Y-257" target="RKQ7zHbird5SUSdAbg0Y-255">
          <mxGeometry width="50" height="50" relative="1" as="geometry">
            <mxPoint x="1506.25" y="-110" as="sourcePoint" />
            <mxPoint x="1318.75" y="20" as="targetPoint" />
          </mxGeometry>
        </mxCell>
        <mxCell id="RKQ7zHbird5SUSdAbg0Y-263" value="" style="endArrow=none;html=1;rounded=0;entryX=1;entryY=0.5;entryDx=0;entryDy=0;exitX=0.5;exitY=1;exitDx=0;exitDy=0;" edge="1" parent="1" source="RKQ7zHbird5SUSdAbg0Y-255" target="RKQ7zHbird5SUSdAbg0Y-258">
          <mxGeometry width="50" height="50" relative="1" as="geometry">
            <mxPoint x="1268.75" y="70" as="sourcePoint" />
            <mxPoint x="1318.75" y="20" as="targetPoint" />
          </mxGeometry>
        </mxCell>
        <mxCell id="RKQ7zHbird5SUSdAbg0Y-264" value="" style="endArrow=none;html=1;rounded=0;entryX=1;entryY=1;entryDx=0;entryDy=0;exitX=0.5;exitY=0;exitDx=0;exitDy=0;" edge="1" parent="1" source="RKQ7zHbird5SUSdAbg0Y-255" target="RKQ7zHbird5SUSdAbg0Y-259">
          <mxGeometry width="50" height="50" relative="1" as="geometry">
            <mxPoint x="1563.75" y="-170" as="sourcePoint" />
            <mxPoint x="1318.75" y="20" as="targetPoint" />
          </mxGeometry>
        </mxCell>
        <mxCell id="RKQ7zHbird5SUSdAbg0Y-265" value="" style="endArrow=none;html=1;rounded=0;entryX=1;entryY=0.5;entryDx=0;entryDy=0;exitX=0;exitY=0.5;exitDx=0;exitDy=0;" edge="1" parent="1" source="RKQ7zHbird5SUSdAbg0Y-255" target="RKQ7zHbird5SUSdAbg0Y-267">
          <mxGeometry width="50" height="50" relative="1" as="geometry">
            <mxPoint x="1268.75" y="70" as="sourcePoint" />
            <mxPoint x="1418.75" y="-140" as="targetPoint" />
          </mxGeometry>
        </mxCell>
        <mxCell id="RKQ7zHbird5SUSdAbg0Y-266" value="" style="endArrow=none;html=1;rounded=0;entryX=0.5;entryY=1;entryDx=0;entryDy=0;exitX=0.5;exitY=0;exitDx=0;exitDy=0;" edge="1" parent="1" source="RKQ7zHbird5SUSdAbg0Y-255" target="RKQ7zHbird5SUSdAbg0Y-256">
          <mxGeometry width="50" height="50" relative="1" as="geometry">
            <mxPoint x="1268.75" y="70" as="sourcePoint" />
            <mxPoint x="1318.75" y="20" as="targetPoint" />
          </mxGeometry>
        </mxCell>
        <mxCell id="RKQ7zHbird5SUSdAbg0Y-267" value="created_at" style="ellipse;whiteSpace=wrap;html=1;align=center;" vertex="1" parent="1">
          <mxGeometry x="1303.75" y="-200" width="100" height="40" as="geometry" />
        </mxCell>
        <mxCell id="RKQ7zHbird5SUSdAbg0Y-268" value="hotel_bookings" style="whiteSpace=wrap;html=1;align=center;" vertex="1" parent="1">
          <mxGeometry x="1275" y="230" width="100" height="40" as="geometry" />
        </mxCell>
        <mxCell id="RKQ7zHbird5SUSdAbg0Y-269" value="ID" style="ellipse;whiteSpace=wrap;html=1;align=center;fontStyle=4;" vertex="1" parent="1">
          <mxGeometry x="1180" y="70" width="70" height="20" as="geometry" />
        </mxCell>
        <mxCell id="RKQ7zHbird5SUSdAbg0Y-270" value="hotel_id" style="ellipse;whiteSpace=wrap;html=1;align=center;" vertex="1" parent="1">
          <mxGeometry x="1275" y="60" width="100" height="40" as="geometry" />
        </mxCell>
        <mxCell id="RKQ7zHbird5SUSdAbg0Y-271" value="user_id" style="ellipse;whiteSpace=wrap;html=1;align=center;" vertex="1" parent="1">
          <mxGeometry x="1380" y="60" width="100" height="40" as="geometry" />
        </mxCell>
        <mxCell id="RKQ7zHbird5SUSdAbg0Y-272" value="check_in" style="ellipse;whiteSpace=wrap;html=1;align=center;" vertex="1" parent="1">
          <mxGeometry x="1480" y="80" width="100" height="40" as="geometry" />
        </mxCell>
        <mxCell id="RKQ7zHbird5SUSdAbg0Y-273" value="check_out" style="ellipse;whiteSpace=wrap;html=1;align=center;" vertex="1" parent="1">
          <mxGeometry x="1500" y="130" width="100" height="40" as="geometry" />
        </mxCell>
        <mxCell id="RKQ7zHbird5SUSdAbg0Y-274" value="" style="endArrow=none;html=1;rounded=0;entryX=0;entryY=0.5;entryDx=0;entryDy=0;exitX=0.5;exitY=0;exitDx=0;exitDy=0;" edge="1" parent="1" source="RKQ7zHbird5SUSdAbg0Y-268" target="RKQ7zHbird5SUSdAbg0Y-273">
          <mxGeometry width="50" height="50" relative="1" as="geometry">
            <mxPoint x="1380" y="230" as="sourcePoint" />
            <mxPoint x="1190" y="170" as="targetPoint" />
          </mxGeometry>
        </mxCell>
        <mxCell id="RKQ7zHbird5SUSdAbg0Y-275" value="" style="endArrow=none;html=1;rounded=0;entryX=0;entryY=0.5;entryDx=0;entryDy=0;exitX=0.5;exitY=0;exitDx=0;exitDy=0;" edge="1" parent="1" source="RKQ7zHbird5SUSdAbg0Y-268" target="RKQ7zHbird5SUSdAbg0Y-272">
          <mxGeometry width="50" height="50" relative="1" as="geometry">
            <mxPoint x="1140" y="220" as="sourcePoint" />
            <mxPoint x="1190" y="170" as="targetPoint" />
          </mxGeometry>
        </mxCell>
        <mxCell id="RKQ7zHbird5SUSdAbg0Y-276" value="" style="endArrow=none;html=1;rounded=0;entryX=0.5;entryY=1;entryDx=0;entryDy=0;exitX=0.5;exitY=0;exitDx=0;exitDy=0;" edge="1" parent="1" source="RKQ7zHbird5SUSdAbg0Y-268" target="RKQ7zHbird5SUSdAbg0Y-271">
          <mxGeometry width="50" height="50" relative="1" as="geometry">
            <mxPoint x="1140" y="220" as="sourcePoint" />
            <mxPoint x="1190" y="170" as="targetPoint" />
          </mxGeometry>
        </mxCell>
        <mxCell id="RKQ7zHbird5SUSdAbg0Y-277" value="" style="endArrow=none;html=1;rounded=0;entryX=0.5;entryY=1;entryDx=0;entryDy=0;exitX=0.5;exitY=0;exitDx=0;exitDy=0;" edge="1" parent="1" source="RKQ7zHbird5SUSdAbg0Y-268" target="RKQ7zHbird5SUSdAbg0Y-270">
          <mxGeometry width="50" height="50" relative="1" as="geometry">
            <mxPoint x="1150" y="240" as="sourcePoint" />
            <mxPoint x="1200" y="190" as="targetPoint" />
          </mxGeometry>
        </mxCell>
        <mxCell id="RKQ7zHbird5SUSdAbg0Y-278" value="" style="endArrow=none;html=1;rounded=0;entryX=0.5;entryY=1;entryDx=0;entryDy=0;exitX=0.5;exitY=0;exitDx=0;exitDy=0;" edge="1" parent="1" source="RKQ7zHbird5SUSdAbg0Y-268" target="RKQ7zHbird5SUSdAbg0Y-269">
          <mxGeometry width="50" height="50" relative="1" as="geometry">
            <mxPoint x="1025" y="350" as="sourcePoint" />
            <mxPoint x="1075" y="300" as="targetPoint" />
          </mxGeometry>
        </mxCell>
        <mxCell id="RKQ7zHbird5SUSdAbg0Y-279" value="guest_last_name" style="ellipse;whiteSpace=wrap;html=1;align=center;" vertex="1" parent="1">
          <mxGeometry x="1220" y="440" width="100" height="40" as="geometry" />
        </mxCell>
        <mxCell id="RKQ7zHbird5SUSdAbg0Y-280" value="total_price" style="ellipse;whiteSpace=wrap;html=1;align=center;" vertex="1" parent="1">
          <mxGeometry x="1510" y="230" width="100" height="40" as="geometry" />
        </mxCell>
        <mxCell id="RKQ7zHbird5SUSdAbg0Y-281" value="guest_first_name" style="ellipse;whiteSpace=wrap;html=1;align=center;" vertex="1" parent="1">
          <mxGeometry x="1350" y="440" width="100" height="40" as="geometry" />
        </mxCell>
        <mxCell id="RKQ7zHbird5SUSdAbg0Y-282" value="guest_email" style="ellipse;whiteSpace=wrap;html=1;align=center;" vertex="1" parent="1">
          <mxGeometry x="1130" y="410" width="100" height="40" as="geometry" />
        </mxCell>
        <mxCell id="RKQ7zHbird5SUSdAbg0Y-283" value="booking_reference" style="ellipse;whiteSpace=wrap;html=1;align=center;" vertex="1" parent="1">
          <mxGeometry x="1490" y="390" width="100" height="40" as="geometry" />
        </mxCell>
        <mxCell id="RKQ7zHbird5SUSdAbg0Y-284" value="status" style="ellipse;whiteSpace=wrap;html=1;align=center;" vertex="1" parent="1">
          <mxGeometry x="1505" y="290" width="100" height="40" as="geometry" />
        </mxCell>
        <mxCell id="RKQ7zHbird5SUSdAbg0Y-285" value="special_requests" style="ellipse;whiteSpace=wrap;html=1;align=center;" vertex="1" parent="1">
          <mxGeometry x="1010" y="150" width="100" height="40" as="geometry" />
        </mxCell>
        <mxCell id="RKQ7zHbird5SUSdAbg0Y-286" value="rooms" style="ellipse;whiteSpace=wrap;html=1;align=center;" vertex="1" parent="1">
          <mxGeometry x="1510" y="180" width="100" height="40" as="geometry" />
        </mxCell>
        <mxCell id="RKQ7zHbird5SUSdAbg0Y-287" value="special_requests" style="ellipse;whiteSpace=wrap;html=1;align=center;rotation=-15;" vertex="1" parent="1">
          <mxGeometry x="1002.5" y="220" width="100" height="40" as="geometry" />
        </mxCell>
        <mxCell id="RKQ7zHbird5SUSdAbg0Y-288" value="created_at" style="ellipse;whiteSpace=wrap;html=1;align=center;" vertex="1" parent="1">
          <mxGeometry x="1110" y="110" width="100" height="40" as="geometry" />
        </mxCell>
        <mxCell id="RKQ7zHbird5SUSdAbg0Y-289" value="guest_phone" style="ellipse;whiteSpace=wrap;html=1;align=center;" vertex="1" parent="1">
          <mxGeometry x="1010" y="290" width="100" height="40" as="geometry" />
        </mxCell>
        <mxCell id="RKQ7zHbird5SUSdAbg0Y-290" value="" style="endArrow=none;html=1;rounded=0;entryX=0.5;entryY=1;entryDx=0;entryDy=0;exitX=0.5;exitY=0;exitDx=0;exitDy=0;" edge="1" parent="1" source="RKQ7zHbird5SUSdAbg0Y-282" target="RKQ7zHbird5SUSdAbg0Y-268">
          <mxGeometry width="50" height="50" relative="1" as="geometry">
            <mxPoint x="1150" y="360" as="sourcePoint" />
            <mxPoint x="1200" y="310" as="targetPoint" />
          </mxGeometry>
        </mxCell>
        <mxCell id="RKQ7zHbird5SUSdAbg0Y-291" value="" style="endArrow=none;html=1;rounded=0;entryX=0;entryY=0.5;entryDx=0;entryDy=0;exitX=1;exitY=0.5;exitDx=0;exitDy=0;" edge="1" parent="1" source="RKQ7zHbird5SUSdAbg0Y-268" target="RKQ7zHbird5SUSdAbg0Y-280">
          <mxGeometry width="50" height="50" relative="1" as="geometry">
            <mxPoint x="1150" y="360" as="sourcePoint" />
            <mxPoint x="1200" y="310" as="targetPoint" />
          </mxGeometry>
        </mxCell>
        <mxCell id="RKQ7zHbird5SUSdAbg0Y-292" value="" style="endArrow=none;html=1;rounded=0;entryX=0;entryY=0.5;entryDx=0;entryDy=0;exitX=0.5;exitY=0;exitDx=0;exitDy=0;" edge="1" parent="1" source="RKQ7zHbird5SUSdAbg0Y-268" target="RKQ7zHbird5SUSdAbg0Y-286">
          <mxGeometry width="50" height="50" relative="1" as="geometry">
            <mxPoint x="1150" y="360" as="sourcePoint" />
            <mxPoint x="1200" y="310" as="targetPoint" />
          </mxGeometry>
        </mxCell>
        <mxCell id="RKQ7zHbird5SUSdAbg0Y-293" value="" style="endArrow=none;html=1;rounded=0;entryX=1;entryY=0.5;entryDx=0;entryDy=0;exitX=0;exitY=0.5;exitDx=0;exitDy=0;" edge="1" parent="1" source="RKQ7zHbird5SUSdAbg0Y-268" target="RKQ7zHbird5SUSdAbg0Y-289">
          <mxGeometry width="50" height="50" relative="1" as="geometry">
            <mxPoint x="1150" y="360" as="sourcePoint" />
            <mxPoint x="1200" y="310" as="targetPoint" />
          </mxGeometry>
        </mxCell>
        <mxCell id="RKQ7zHbird5SUSdAbg0Y-294" value="" style="endArrow=none;html=1;rounded=0;entryX=1;entryY=0.5;entryDx=0;entryDy=0;exitX=0;exitY=0.5;exitDx=0;exitDy=0;" edge="1" parent="1" source="RKQ7zHbird5SUSdAbg0Y-268" target="RKQ7zHbird5SUSdAbg0Y-287">
          <mxGeometry width="50" height="50" relative="1" as="geometry">
            <mxPoint x="1150" y="360" as="sourcePoint" />
            <mxPoint x="1200" y="310" as="targetPoint" />
          </mxGeometry>
        </mxCell>
        <mxCell id="RKQ7zHbird5SUSdAbg0Y-295" value="" style="endArrow=none;html=1;rounded=0;entryX=0.438;entryY=0.001;entryDx=0;entryDy=0;entryPerimeter=0;exitX=0.5;exitY=1;exitDx=0;exitDy=0;" edge="1" parent="1" source="RKQ7zHbird5SUSdAbg0Y-268" target="RKQ7zHbird5SUSdAbg0Y-279">
          <mxGeometry width="50" height="50" relative="1" as="geometry">
            <mxPoint x="1150" y="360" as="sourcePoint" />
            <mxPoint x="1200" y="310" as="targetPoint" />
          </mxGeometry>
        </mxCell>
        <mxCell id="RKQ7zHbird5SUSdAbg0Y-296" value="" style="endArrow=none;html=1;rounded=0;entryX=1;entryY=0.5;entryDx=0;entryDy=0;exitX=0;exitY=0.5;exitDx=0;exitDy=0;" edge="1" parent="1" source="RKQ7zHbird5SUSdAbg0Y-268" target="RKQ7zHbird5SUSdAbg0Y-285">
          <mxGeometry width="50" height="50" relative="1" as="geometry">
            <mxPoint x="1150" y="360" as="sourcePoint" />
            <mxPoint x="1200" y="310" as="targetPoint" />
          </mxGeometry>
        </mxCell>
        <mxCell id="RKQ7zHbird5SUSdAbg0Y-297" value="" style="endArrow=none;html=1;rounded=0;entryX=1;entryY=0.5;entryDx=0;entryDy=0;exitX=0.5;exitY=0;exitDx=0;exitDy=0;" edge="1" parent="1" source="RKQ7zHbird5SUSdAbg0Y-268" target="RKQ7zHbird5SUSdAbg0Y-288">
          <mxGeometry width="50" height="50" relative="1" as="geometry">
            <mxPoint x="1150" y="360" as="sourcePoint" />
            <mxPoint x="1200" y="310" as="targetPoint" />
          </mxGeometry>
        </mxCell>
        <mxCell id="RKQ7zHbird5SUSdAbg0Y-298" value="" style="endArrow=none;html=1;rounded=0;entryX=0.5;entryY=1;entryDx=0;entryDy=0;exitX=0;exitY=0;exitDx=0;exitDy=0;" edge="1" parent="1" source="RKQ7zHbird5SUSdAbg0Y-283" target="RKQ7zHbird5SUSdAbg0Y-268">
          <mxGeometry width="50" height="50" relative="1" as="geometry">
            <mxPoint x="1350" y="370" as="sourcePoint" />
            <mxPoint x="1400" y="320" as="targetPoint" />
          </mxGeometry>
        </mxCell>
        <mxCell id="RKQ7zHbird5SUSdAbg0Y-299" value="" style="endArrow=none;html=1;rounded=0;entryX=0.5;entryY=1;entryDx=0;entryDy=0;exitX=0.5;exitY=0;exitDx=0;exitDy=0;" edge="1" parent="1" source="RKQ7zHbird5SUSdAbg0Y-281" target="RKQ7zHbird5SUSdAbg0Y-268">
          <mxGeometry width="50" height="50" relative="1" as="geometry">
            <mxPoint x="1350" y="370" as="sourcePoint" />
            <mxPoint x="1400" y="320" as="targetPoint" />
          </mxGeometry>
        </mxCell>
        <mxCell id="RKQ7zHbird5SUSdAbg0Y-300" value="" style="endArrow=none;html=1;rounded=0;entryX=1;entryY=0.5;entryDx=0;entryDy=0;exitX=0;exitY=0.5;exitDx=0;exitDy=0;" edge="1" parent="1" source="RKQ7zHbird5SUSdAbg0Y-284" target="RKQ7zHbird5SUSdAbg0Y-268">
          <mxGeometry width="50" height="50" relative="1" as="geometry">
            <mxPoint x="1350" y="370" as="sourcePoint" />
            <mxPoint x="1400" y="320" as="targetPoint" />
          </mxGeometry>
        </mxCell>
        <mxCell id="RKQ7zHbird5SUSdAbg0Y-301" value="transaction_id" style="ellipse;whiteSpace=wrap;html=1;align=center;" vertex="1" parent="1">
          <mxGeometry x="1018" y="360" width="100" height="40" as="geometry" />
        </mxCell>
        <mxCell id="RKQ7zHbird5SUSdAbg0Y-302" value="" style="endArrow=none;html=1;rounded=0;entryX=0;entryY=1;entryDx=0;entryDy=0;exitX=1;exitY=0.5;exitDx=0;exitDy=0;" edge="1" parent="1" source="RKQ7zHbird5SUSdAbg0Y-301" target="RKQ7zHbird5SUSdAbg0Y-268">
          <mxGeometry width="50" height="50" relative="1" as="geometry">
            <mxPoint x="1070" y="400" as="sourcePoint" />
            <mxPoint x="1120" y="350" as="targetPoint" />
          </mxGeometry>
        </mxCell>
        <mxCell id="RKQ7zHbird5SUSdAbg0Y-317" value="hotel_bookings_status" style="whiteSpace=wrap;html=1;align=center;" vertex="1" parent="1">
          <mxGeometry x="1367.5" y="-425" width="152.5" height="65" as="geometry" />
        </mxCell>
        <mxCell id="RKQ7zHbird5SUSdAbg0Y-318" value="booking_id" style="ellipse;whiteSpace=wrap;html=1;align=center;" vertex="1" parent="1">
          <mxGeometry x="1352.5" y="-525" width="100" height="40" as="geometry" />
        </mxCell>
        <mxCell id="RKQ7zHbird5SUSdAbg0Y-321" value="ID" style="ellipse;whiteSpace=wrap;html=1;align=center;fontStyle=4;" vertex="1" parent="1">
          <mxGeometry x="1230" y="-505" width="100" height="40" as="geometry" />
        </mxCell>
        <mxCell id="RKQ7zHbird5SUSdAbg0Y-322" value="status" style="ellipse;whiteSpace=wrap;html=1;align=center;" vertex="1" parent="1">
          <mxGeometry x="1460" y="-515" width="100" height="40" as="geometry" />
        </mxCell>
        <mxCell id="RKQ7zHbird5SUSdAbg0Y-323" value="" style="endArrow=none;html=1;rounded=0;entryX=0.5;entryY=0;entryDx=0;entryDy=0;exitX=0.5;exitY=1;exitDx=0;exitDy=0;" edge="1" parent="1" source="RKQ7zHbird5SUSdAbg0Y-322" target="RKQ7zHbird5SUSdAbg0Y-317">
          <mxGeometry width="50" height="50" relative="1" as="geometry">
            <mxPoint x="1195" y="-155" as="sourcePoint" />
            <mxPoint x="1245" y="-205" as="targetPoint" />
          </mxGeometry>
        </mxCell>
        <mxCell id="RKQ7zHbird5SUSdAbg0Y-326" value="" style="endArrow=none;html=1;rounded=0;entryX=1;entryY=1;entryDx=0;entryDy=0;exitX=0.5;exitY=0;exitDx=0;exitDy=0;" edge="1" parent="1" source="RKQ7zHbird5SUSdAbg0Y-317" target="RKQ7zHbird5SUSdAbg0Y-321">
          <mxGeometry width="50" height="50" relative="1" as="geometry">
            <mxPoint x="1490" y="-395" as="sourcePoint" />
            <mxPoint x="1245" y="-205" as="targetPoint" />
          </mxGeometry>
        </mxCell>
        <mxCell id="RKQ7zHbird5SUSdAbg0Y-327" value="" style="endArrow=none;html=1;rounded=0;entryX=1;entryY=0.5;entryDx=0;entryDy=0;exitX=0;exitY=0.5;exitDx=0;exitDy=0;" edge="1" parent="1" source="RKQ7zHbird5SUSdAbg0Y-317" target="RKQ7zHbird5SUSdAbg0Y-329">
          <mxGeometry width="50" height="50" relative="1" as="geometry">
            <mxPoint x="1195" y="-155" as="sourcePoint" />
            <mxPoint x="1345" y="-365" as="targetPoint" />
          </mxGeometry>
        </mxCell>
        <mxCell id="RKQ7zHbird5SUSdAbg0Y-328" value="" style="endArrow=none;html=1;rounded=0;entryX=0.5;entryY=1;entryDx=0;entryDy=0;exitX=0.5;exitY=0;exitDx=0;exitDy=0;" edge="1" parent="1" source="RKQ7zHbird5SUSdAbg0Y-317" target="RKQ7zHbird5SUSdAbg0Y-318">
          <mxGeometry width="50" height="50" relative="1" as="geometry">
            <mxPoint x="1195" y="-155" as="sourcePoint" />
            <mxPoint x="1245" y="-205" as="targetPoint" />
          </mxGeometry>
        </mxCell>
        <mxCell id="RKQ7zHbird5SUSdAbg0Y-329" value="created_at" style="ellipse;whiteSpace=wrap;html=1;align=center;" vertex="1" parent="1">
          <mxGeometry x="1230" y="-425" width="100" height="40" as="geometry" />
        </mxCell>
        <mxCell id="RKQ7zHbird5SUSdAbg0Y-330" value="room_types" style="whiteSpace=wrap;html=1;align=center;" vertex="1" parent="1">
          <mxGeometry x="1022.5" y="720" width="120" height="40" as="geometry" />
        </mxCell>
        <mxCell id="RKQ7zHbird5SUSdAbg0Y-331" value="hotel_id" style="ellipse;whiteSpace=wrap;html=1;align=center;" vertex="1" parent="1">
          <mxGeometry x="1002.5" y="610" width="100" height="40" as="geometry" />
        </mxCell>
        <mxCell id="RKQ7zHbird5SUSdAbg0Y-332" value="description" style="ellipse;whiteSpace=wrap;html=1;align=center;" vertex="1" parent="1">
          <mxGeometry x="1122.5" y="800" width="100" height="40" as="geometry" />
        </mxCell>
        <mxCell id="RKQ7zHbird5SUSdAbg0Y-333" value="max_occupancy" style="ellipse;whiteSpace=wrap;html=1;align=center;" vertex="1" parent="1">
          <mxGeometry x="890" y="810" width="100" height="40" as="geometry" />
        </mxCell>
        <mxCell id="RKQ7zHbird5SUSdAbg0Y-334" value="ID" style="ellipse;whiteSpace=wrap;html=1;align=center;fontStyle=4;" vertex="1" parent="1">
          <mxGeometry x="872.5" y="630" width="100" height="40" as="geometry" />
        </mxCell>
        <mxCell id="RKQ7zHbird5SUSdAbg0Y-335" value="room_type" style="ellipse;whiteSpace=wrap;html=1;align=center;" vertex="1" parent="1">
          <mxGeometry x="1152.5" y="640" width="100" height="40" as="geometry" />
        </mxCell>
        <mxCell id="RKQ7zHbird5SUSdAbg0Y-336" value="" style="endArrow=none;html=1;rounded=0;entryX=0.5;entryY=0;entryDx=0;entryDy=0;exitX=0;exitY=0.5;exitDx=0;exitDy=0;" edge="1" parent="1" source="RKQ7zHbird5SUSdAbg0Y-335" target="RKQ7zHbird5SUSdAbg0Y-330">
          <mxGeometry width="50" height="50" relative="1" as="geometry">
            <mxPoint x="792.5" y="960" as="sourcePoint" />
            <mxPoint x="842.5" y="910" as="targetPoint" />
          </mxGeometry>
        </mxCell>
        <mxCell id="RKQ7zHbird5SUSdAbg0Y-337" value="" style="endArrow=none;html=1;rounded=0;entryX=0.5;entryY=1;entryDx=0;entryDy=0;exitX=0.5;exitY=0;exitDx=0;exitDy=0;" edge="1" parent="1" source="RKQ7zHbird5SUSdAbg0Y-332" target="RKQ7zHbird5SUSdAbg0Y-330">
          <mxGeometry width="50" height="50" relative="1" as="geometry">
            <mxPoint x="792.5" y="960" as="sourcePoint" />
            <mxPoint x="842.5" y="910" as="targetPoint" />
          </mxGeometry>
        </mxCell>
        <mxCell id="RKQ7zHbird5SUSdAbg0Y-338" value="" style="endArrow=none;html=1;rounded=0;entryX=0.5;entryY=0;entryDx=0;entryDy=0;exitX=0.5;exitY=1;exitDx=0;exitDy=0;" edge="1" parent="1" source="RKQ7zHbird5SUSdAbg0Y-330" target="RKQ7zHbird5SUSdAbg0Y-333">
          <mxGeometry width="50" height="50" relative="1" as="geometry">
            <mxPoint x="792.5" y="960" as="sourcePoint" />
            <mxPoint x="842.5" y="910" as="targetPoint" />
          </mxGeometry>
        </mxCell>
        <mxCell id="RKQ7zHbird5SUSdAbg0Y-339" value="" style="endArrow=none;html=1;rounded=0;entryX=1;entryY=1;entryDx=0;entryDy=0;exitX=0.5;exitY=0;exitDx=0;exitDy=0;" edge="1" parent="1" source="RKQ7zHbird5SUSdAbg0Y-330" target="RKQ7zHbird5SUSdAbg0Y-334">
          <mxGeometry width="50" height="50" relative="1" as="geometry">
            <mxPoint x="1087.5" y="720" as="sourcePoint" />
            <mxPoint x="842.5" y="910" as="targetPoint" />
          </mxGeometry>
        </mxCell>
        <mxCell id="RKQ7zHbird5SUSdAbg0Y-340" value="" style="endArrow=none;html=1;rounded=0;entryX=1;entryY=0.5;entryDx=0;entryDy=0;exitX=0;exitY=0.5;exitDx=0;exitDy=0;" edge="1" parent="1" source="RKQ7zHbird5SUSdAbg0Y-330" target="RKQ7zHbird5SUSdAbg0Y-354">
          <mxGeometry width="50" height="50" relative="1" as="geometry">
            <mxPoint x="792.5" y="960" as="sourcePoint" />
            <mxPoint x="942.5" y="750" as="targetPoint" />
          </mxGeometry>
        </mxCell>
        <mxCell id="RKQ7zHbird5SUSdAbg0Y-341" value="" style="endArrow=none;html=1;rounded=0;entryX=0.5;entryY=1;entryDx=0;entryDy=0;exitX=0.5;exitY=0;exitDx=0;exitDy=0;" edge="1" parent="1" source="RKQ7zHbird5SUSdAbg0Y-330" target="RKQ7zHbird5SUSdAbg0Y-331">
          <mxGeometry width="50" height="50" relative="1" as="geometry">
            <mxPoint x="792.5" y="960" as="sourcePoint" />
            <mxPoint x="842.5" y="910" as="targetPoint" />
          </mxGeometry>
        </mxCell>
        <mxCell id="RKQ7zHbird5SUSdAbg0Y-342" value="feedback" style="whiteSpace=wrap;html=1;align=center;" vertex="1" parent="1">
          <mxGeometry x="1442.5" y="745" width="120" height="40" as="geometry" />
        </mxCell>
        <mxCell id="RKQ7zHbird5SUSdAbg0Y-343" value="booking_id" style="ellipse;whiteSpace=wrap;html=1;align=center;" vertex="1" parent="1">
          <mxGeometry x="1422.5" y="635" width="100" height="40" as="geometry" />
        </mxCell>
        <mxCell id="RKQ7zHbird5SUSdAbg0Y-344" value="created_at" style="ellipse;whiteSpace=wrap;html=1;align=center;" vertex="1" parent="1">
          <mxGeometry x="1542.5" y="825" width="100" height="40" as="geometry" />
        </mxCell>
        <mxCell id="RKQ7zHbird5SUSdAbg0Y-345" value="status" style="ellipse;whiteSpace=wrap;html=1;align=center;" vertex="1" parent="1">
          <mxGeometry x="1420" y="850" width="100" height="40" as="geometry" />
        </mxCell>
        <mxCell id="RKQ7zHbird5SUSdAbg0Y-346" value="ID" style="ellipse;whiteSpace=wrap;html=1;align=center;fontStyle=4;" vertex="1" parent="1">
          <mxGeometry x="1292.5" y="655" width="100" height="40" as="geometry" />
        </mxCell>
        <mxCell id="RKQ7zHbird5SUSdAbg0Y-347" value="user_id" style="ellipse;whiteSpace=wrap;html=1;align=center;" vertex="1" parent="1">
          <mxGeometry x="1580" y="670" width="100" height="40" as="geometry" />
        </mxCell>
        <mxCell id="RKQ7zHbird5SUSdAbg0Y-348" value="" style="endArrow=none;html=1;rounded=0;entryX=0.5;entryY=0;entryDx=0;entryDy=0;exitX=0;exitY=0.5;exitDx=0;exitDy=0;" edge="1" parent="1" source="RKQ7zHbird5SUSdAbg0Y-347" target="RKQ7zHbird5SUSdAbg0Y-342">
          <mxGeometry width="50" height="50" relative="1" as="geometry">
            <mxPoint x="1572.5" y="685" as="sourcePoint" />
            <mxPoint x="1262.5" y="935" as="targetPoint" />
          </mxGeometry>
        </mxCell>
        <mxCell id="RKQ7zHbird5SUSdAbg0Y-349" value="" style="endArrow=none;html=1;rounded=0;entryX=0.5;entryY=1;entryDx=0;entryDy=0;exitX=0.5;exitY=0;exitDx=0;exitDy=0;" edge="1" parent="1" source="RKQ7zHbird5SUSdAbg0Y-344" target="RKQ7zHbird5SUSdAbg0Y-342">
          <mxGeometry width="50" height="50" relative="1" as="geometry">
            <mxPoint x="1212.5" y="985" as="sourcePoint" />
            <mxPoint x="1262.5" y="935" as="targetPoint" />
          </mxGeometry>
        </mxCell>
        <mxCell id="RKQ7zHbird5SUSdAbg0Y-350" value="" style="endArrow=none;html=1;rounded=0;entryX=0.5;entryY=0;entryDx=0;entryDy=0;exitX=0.5;exitY=1;exitDx=0;exitDy=0;" edge="1" parent="1" source="RKQ7zHbird5SUSdAbg0Y-342" target="RKQ7zHbird5SUSdAbg0Y-345">
          <mxGeometry width="50" height="50" relative="1" as="geometry">
            <mxPoint x="1212.5" y="985" as="sourcePoint" />
            <mxPoint x="1262.5" y="935" as="targetPoint" />
          </mxGeometry>
        </mxCell>
        <mxCell id="RKQ7zHbird5SUSdAbg0Y-351" value="" style="endArrow=none;html=1;rounded=0;entryX=1;entryY=1;entryDx=0;entryDy=0;exitX=0.5;exitY=0;exitDx=0;exitDy=0;" edge="1" parent="1" source="RKQ7zHbird5SUSdAbg0Y-342" target="RKQ7zHbird5SUSdAbg0Y-346">
          <mxGeometry width="50" height="50" relative="1" as="geometry">
            <mxPoint x="1507.5" y="745" as="sourcePoint" />
            <mxPoint x="1262.5" y="935" as="targetPoint" />
          </mxGeometry>
        </mxCell>
        <mxCell id="RKQ7zHbird5SUSdAbg0Y-352" value="" style="endArrow=none;html=1;rounded=0;entryX=1;entryY=0.5;entryDx=0;entryDy=0;exitX=0;exitY=0.5;exitDx=0;exitDy=0;" edge="1" parent="1" source="RKQ7zHbird5SUSdAbg0Y-342" target="RKQ7zHbird5SUSdAbg0Y-357">
          <mxGeometry width="50" height="50" relative="1" as="geometry">
            <mxPoint x="1212.5" y="985" as="sourcePoint" />
            <mxPoint x="1362.5" y="775" as="targetPoint" />
          </mxGeometry>
        </mxCell>
        <mxCell id="RKQ7zHbird5SUSdAbg0Y-353" value="" style="endArrow=none;html=1;rounded=0;entryX=0.5;entryY=1;entryDx=0;entryDy=0;exitX=0.5;exitY=0;exitDx=0;exitDy=0;" edge="1" parent="1" source="RKQ7zHbird5SUSdAbg0Y-342" target="RKQ7zHbird5SUSdAbg0Y-343">
          <mxGeometry width="50" height="50" relative="1" as="geometry">
            <mxPoint x="1212.5" y="985" as="sourcePoint" />
            <mxPoint x="1262.5" y="935" as="targetPoint" />
          </mxGeometry>
        </mxCell>
        <mxCell id="RKQ7zHbird5SUSdAbg0Y-354" value="price_per_night" style="ellipse;whiteSpace=wrap;html=1;align=center;" vertex="1" parent="1">
          <mxGeometry x="852.5" y="740" width="100" height="40" as="geometry" />
        </mxCell>
        <mxCell id="RKQ7zHbird5SUSdAbg0Y-355" value="amenities" style="ellipse;whiteSpace=wrap;html=1;align=center;" vertex="1" parent="1">
          <mxGeometry x="1002.5" y="840" width="100" height="40" as="geometry" />
        </mxCell>
        <mxCell id="RKQ7zHbird5SUSdAbg0Y-356" value="" style="endArrow=none;html=1;rounded=0;entryX=0.5;entryY=0;entryDx=0;entryDy=0;exitX=0.5;exitY=1;exitDx=0;exitDy=0;" edge="1" parent="1" source="RKQ7zHbird5SUSdAbg0Y-330" target="RKQ7zHbird5SUSdAbg0Y-355">
          <mxGeometry width="50" height="50" relative="1" as="geometry">
            <mxPoint x="1163" y="780" as="sourcePoint" />
            <mxPoint x="1020" y="830" as="targetPoint" />
          </mxGeometry>
        </mxCell>
        <mxCell id="RKQ7zHbird5SUSdAbg0Y-357" value="&#xa;rating&#xa;&#xa;" style="ellipse;whiteSpace=wrap;html=1;align=center;" vertex="1" parent="1">
          <mxGeometry x="1252.5" y="725" width="100" height="40" as="geometry" />
        </mxCell>
        <mxCell id="RKQ7zHbird5SUSdAbg0Y-358" value="comments" style="ellipse;whiteSpace=wrap;html=1;align=center;" vertex="1" parent="1">
          <mxGeometry x="1295" y="800" width="100" height="40" as="geometry" />
        </mxCell>
        <mxCell id="RKQ7zHbird5SUSdAbg0Y-359" value="" style="endArrow=none;html=1;rounded=0;entryX=1;entryY=0.5;entryDx=0;entryDy=0;exitX=0;exitY=0.5;exitDx=0;exitDy=0;" edge="1" parent="1" source="RKQ7zHbird5SUSdAbg0Y-342" target="RKQ7zHbird5SUSdAbg0Y-358">
          <mxGeometry width="50" height="50" relative="1" as="geometry">
            <mxPoint x="1502.5" y="775" as="sourcePoint" />
            <mxPoint x="1412.5" y="755" as="targetPoint" />
          </mxGeometry>
        </mxCell>
        <mxCell id="RKQ7zHbird5SUSdAbg0Y-365" value="&lt;b&gt;earns_rewards&lt;/b&gt;" style="shape=rhombus;perimeter=rhombusPerimeter;whiteSpace=wrap;html=1;align=center;rotation=90;" vertex="1" parent="1">
          <mxGeometry y="180" width="120" height="60" as="geometry" />
        </mxCell>
        <mxCell id="RKQ7zHbird5SUSdAbg0Y-366" value="&lt;b&gt;bill&lt;/b&gt;" style="shape=rhombus;perimeter=rhombusPerimeter;whiteSpace=wrap;html=1;align=center;rotation=90;" vertex="1" parent="1">
          <mxGeometry x="720" y="870" width="120" height="60" as="geometry" />
        </mxCell>
        <mxCell id="RKQ7zHbird5SUSdAbg0Y-367" value="&lt;b&gt;belongs_to&lt;/b&gt;" style="shape=rhombus;perimeter=rhombusPerimeter;whiteSpace=wrap;html=1;align=center;rotation=105;" vertex="1" parent="1">
          <mxGeometry x="210" y="460" width="120" height="60" as="geometry" />
        </mxCell>
        <mxCell id="RKQ7zHbird5SUSdAbg0Y-368" value="&lt;b&gt;writes&lt;/b&gt;" style="shape=rhombus;perimeter=rhombusPerimeter;whiteSpace=wrap;html=1;align=center;rotation=-45;" vertex="1" parent="1">
          <mxGeometry x="120" y="430" width="120" height="60" as="geometry" />
        </mxCell>
        <mxCell id="RKQ7zHbird5SUSdAbg0Y-369" value="&lt;b&gt;books_hotel&lt;/b&gt;" style="shape=rhombus;perimeter=rhombusPerimeter;whiteSpace=wrap;html=1;align=center;rotation=45;" vertex="1" parent="1">
          <mxGeometry x="120" y="140" width="120" height="60" as="geometry" />
        </mxCell>
        <mxCell id="RKQ7zHbird5SUSdAbg0Y-370" value="&lt;b&gt;gives_feedback&lt;/b&gt;" style="shape=rhombus;perimeter=rhombusPerimeter;whiteSpace=wrap;html=1;align=center;" vertex="1" parent="1">
          <mxGeometry x="370" y="15" width="120" height="60" as="geometry" />
        </mxCell>
        <mxCell id="RKQ7zHbird5SUSdAbg0Y-371" value="&lt;b&gt;includes_flight&lt;/b&gt;" style="shape=rhombus;perimeter=rhombusPerimeter;whiteSpace=wrap;html=1;align=center;rotation=90;" vertex="1" parent="1">
          <mxGeometry x="727.5" y="377.5" width="105" height="60" as="geometry" />
        </mxCell>
        <mxCell id="RKQ7zHbird5SUSdAbg0Y-372" value="&lt;b&gt;review_1&lt;/b&gt;" style="shape=rhombus;perimeter=rhombusPerimeter;whiteSpace=wrap;html=1;align=center;rotation=90;" vertex="1" parent="1">
          <mxGeometry x="720" y="130" width="120" height="60" as="geometry" />
        </mxCell>
        <mxCell id="RKQ7zHbird5SUSdAbg0Y-374" value="&lt;b&gt;makes_booking&lt;/b&gt;" style="shape=rhombus;perimeter=rhombusPerimeter;whiteSpace=wrap;html=1;align=center;rotation=15;" vertex="1" parent="1">
          <mxGeometry x="340" y="140" width="120" height="60" as="geometry" />
        </mxCell>
        <mxCell id="RKQ7zHbird5SUSdAbg0Y-391" value="" style="endArrow=none;html=1;rounded=0;entryX=0.5;entryY=1;entryDx=0;entryDy=0;exitX=0;exitY=0.5;exitDx=0;exitDy=0;" edge="1" parent="1" source="RKQ7zHbird5SUSdAbg0Y-374" target="RKQ7zHbird5SUSdAbg0Y-421">
          <mxGeometry width="50" height="50" relative="1" as="geometry">
            <mxPoint x="1060" y="300" as="sourcePoint" />
            <mxPoint x="1110" y="250" as="targetPoint" />
          </mxGeometry>
        </mxCell>
        <mxCell id="RKQ7zHbird5SUSdAbg0Y-395" value="" style="endArrow=none;html=1;rounded=0;entryX=0.5;entryY=1;entryDx=0;entryDy=0;exitX=0;exitY=0.5;exitDx=0;exitDy=0;" edge="1" parent="1" source="RKQ7zHbird5SUSdAbg0Y-372" target="RKQ7zHbird5SUSdAbg0Y-423">
          <mxGeometry width="50" height="50" relative="1" as="geometry">
            <mxPoint x="1110" y="260" as="sourcePoint" />
            <mxPoint x="1160" y="210" as="targetPoint" />
          </mxGeometry>
        </mxCell>
        <mxCell id="RKQ7zHbird5SUSdAbg0Y-396" value="" style="endArrow=none;html=1;rounded=0;exitX=1;exitY=0.5;exitDx=0;exitDy=0;entryX=0;entryY=0.25;entryDx=0;entryDy=0;" edge="1" parent="1" source="RKQ7zHbird5SUSdAbg0Y-374" target="RKQ7zHbird5SUSdAbg0Y-424">
          <mxGeometry width="50" height="50" relative="1" as="geometry">
            <mxPoint x="1110" y="260" as="sourcePoint" />
            <mxPoint x="1160" y="210" as="targetPoint" />
          </mxGeometry>
        </mxCell>
        <mxCell id="RKQ7zHbird5SUSdAbg0Y-397" value="" style="endArrow=none;html=1;rounded=0;entryX=0.5;entryY=0;entryDx=0;entryDy=0;exitX=1;exitY=0.5;exitDx=0;exitDy=0;" edge="1" parent="1" source="RKQ7zHbird5SUSdAbg0Y-365" target="RKQ7zHbird5SUSdAbg0Y-432">
          <mxGeometry width="50" height="50" relative="1" as="geometry">
            <mxPoint x="1110" y="260" as="sourcePoint" />
            <mxPoint x="1160" y="210" as="targetPoint" />
          </mxGeometry>
        </mxCell>
        <mxCell id="RKQ7zHbird5SUSdAbg0Y-398" value="" style="endArrow=none;html=1;rounded=0;entryX=0.5;entryY=1;entryDx=0;entryDy=0;exitX=0;exitY=0.5;exitDx=0;exitDy=0;" edge="1" parent="1" source="RKQ7zHbird5SUSdAbg0Y-365" target="RKQ7zHbird5SUSdAbg0Y-421">
          <mxGeometry width="50" height="50" relative="1" as="geometry">
            <mxPoint x="1110" y="260" as="sourcePoint" />
            <mxPoint x="1160" y="210" as="targetPoint" />
          </mxGeometry>
        </mxCell>
        <mxCell id="RKQ7zHbird5SUSdAbg0Y-399" value="" style="endArrow=none;html=1;rounded=0;entryX=0.25;entryY=0;entryDx=0;entryDy=0;exitX=1;exitY=0.5;exitDx=0;exitDy=0;" edge="1" parent="1" source="RKQ7zHbird5SUSdAbg0Y-400" target="RKQ7zHbird5SUSdAbg0Y-433">
          <mxGeometry width="50" height="50" relative="1" as="geometry">
            <mxPoint x="1470" y="310" as="sourcePoint" />
            <mxPoint x="1520" y="260" as="targetPoint" />
          </mxGeometry>
        </mxCell>
        <mxCell id="RKQ7zHbird5SUSdAbg0Y-400" value="&lt;b&gt;writes_review&lt;/b&gt;" style="shape=rhombus;perimeter=rhombusPerimeter;whiteSpace=wrap;html=1;align=center;rotation=90;" vertex="1" parent="1">
          <mxGeometry y="485" width="120" height="60" as="geometry" />
        </mxCell>
        <mxCell id="RKQ7zHbird5SUSdAbg0Y-401" value="" style="endArrow=none;html=1;rounded=0;entryX=0;entryY=0.5;entryDx=0;entryDy=0;exitX=0.5;exitY=1;exitDx=0;exitDy=0;" edge="1" parent="1" source="RKQ7zHbird5SUSdAbg0Y-432" target="RKQ7zHbird5SUSdAbg0Y-400">
          <mxGeometry width="50" height="50" relative="1" as="geometry">
            <mxPoint x="1140" y="420" as="sourcePoint" />
            <mxPoint x="1190" y="370" as="targetPoint" />
          </mxGeometry>
        </mxCell>
        <mxCell id="RKQ7zHbird5SUSdAbg0Y-402" value="" style="endArrow=none;html=1;rounded=0;entryX=1;entryY=0.5;entryDx=0;entryDy=0;exitX=0;exitY=0.75;exitDx=0;exitDy=0;" edge="1" parent="1" source="RKQ7zHbird5SUSdAbg0Y-423" target="RKQ7zHbird5SUSdAbg0Y-370">
          <mxGeometry width="50" height="50" relative="1" as="geometry">
            <mxPoint x="900" y="510" as="sourcePoint" />
            <mxPoint x="950" y="460" as="targetPoint" />
          </mxGeometry>
        </mxCell>
        <mxCell id="RKQ7zHbird5SUSdAbg0Y-403" value="" style="endArrow=none;html=1;rounded=0;entryX=1;entryY=0.5;entryDx=0;entryDy=0;exitX=0;exitY=0.5;exitDx=0;exitDy=0;" edge="1" parent="1" source="RKQ7zHbird5SUSdAbg0Y-370" target="RKQ7zHbird5SUSdAbg0Y-421">
          <mxGeometry width="50" height="50" relative="1" as="geometry">
            <mxPoint x="900" y="510" as="sourcePoint" />
            <mxPoint x="950" y="460" as="targetPoint" />
          </mxGeometry>
        </mxCell>
        <mxCell id="RKQ7zHbird5SUSdAbg0Y-404" value="" style="endArrow=none;html=1;rounded=0;entryX=0;entryY=0.5;entryDx=0;entryDy=0;exitX=0.5;exitY=1;exitDx=0;exitDy=0;" edge="1" parent="1" source="RKQ7zHbird5SUSdAbg0Y-421" target="RKQ7zHbird5SUSdAbg0Y-369">
          <mxGeometry width="50" height="50" relative="1" as="geometry">
            <mxPoint x="900" y="510" as="sourcePoint" />
            <mxPoint x="950" y="460" as="targetPoint" />
          </mxGeometry>
        </mxCell>
        <mxCell id="RKQ7zHbird5SUSdAbg0Y-405" value="" style="endArrow=none;html=1;rounded=0;entryX=0.5;entryY=0;entryDx=0;entryDy=0;exitX=1;exitY=0.5;exitDx=0;exitDy=0;" edge="1" parent="1" source="RKQ7zHbird5SUSdAbg0Y-369" target="RKQ7zHbird5SUSdAbg0Y-17">
          <mxGeometry width="50" height="50" relative="1" as="geometry">
            <mxPoint x="1700" y="550" as="sourcePoint" />
            <mxPoint x="950" y="460" as="targetPoint" />
          </mxGeometry>
        </mxCell>
        <mxCell id="RKQ7zHbird5SUSdAbg0Y-413" value="&lt;b&gt;needs&lt;/b&gt;" style="shape=rhombus;perimeter=rhombusPerimeter;whiteSpace=wrap;html=1;align=center;rotation=90;" vertex="1" parent="1">
          <mxGeometry x="720" y="610" width="120" height="60" as="geometry" />
        </mxCell>
        <mxCell id="RKQ7zHbird5SUSdAbg0Y-414" value="" style="endArrow=none;html=1;rounded=0;entryX=0;entryY=0.5;entryDx=0;entryDy=0;exitX=0.5;exitY=1;exitDx=0;exitDy=0;" edge="1" parent="1" source="RKQ7zHbird5SUSdAbg0Y-429" target="RKQ7zHbird5SUSdAbg0Y-366">
          <mxGeometry width="50" height="50" relative="1" as="geometry">
            <mxPoint x="650" y="780" as="sourcePoint" />
            <mxPoint x="700" y="730" as="targetPoint" />
          </mxGeometry>
        </mxCell>
        <mxCell id="RKQ7zHbird5SUSdAbg0Y-415" value="" style="endArrow=none;html=1;rounded=0;entryX=1;entryY=0.5;entryDx=0;entryDy=0;exitX=0.5;exitY=0;exitDx=0;exitDy=0;" edge="1" parent="1" source="RKQ7zHbird5SUSdAbg0Y-430" target="RKQ7zHbird5SUSdAbg0Y-366">
          <mxGeometry width="50" height="50" relative="1" as="geometry">
            <mxPoint x="810" y="950" as="sourcePoint" />
            <mxPoint x="860" y="900" as="targetPoint" />
          </mxGeometry>
        </mxCell>
        <mxCell id="RKQ7zHbird5SUSdAbg0Y-416" value="" style="endArrow=none;html=1;rounded=0;entryX=0.5;entryY=1;entryDx=0;entryDy=0;exitX=0;exitY=0.5;exitDx=0;exitDy=0;" edge="1" parent="1" source="RKQ7zHbird5SUSdAbg0Y-413" target="RKQ7zHbird5SUSdAbg0Y-428">
          <mxGeometry width="50" height="50" relative="1" as="geometry">
            <mxPoint x="1040" y="920" as="sourcePoint" />
            <mxPoint x="1090" y="870" as="targetPoint" />
          </mxGeometry>
        </mxCell>
        <mxCell id="RKQ7zHbird5SUSdAbg0Y-417" value="" style="endArrow=none;html=1;rounded=0;entryX=1;entryY=0.5;entryDx=0;entryDy=0;exitX=0.5;exitY=0;exitDx=0;exitDy=0;" edge="1" parent="1" source="RKQ7zHbird5SUSdAbg0Y-429" target="RKQ7zHbird5SUSdAbg0Y-413">
          <mxGeometry width="50" height="50" relative="1" as="geometry">
            <mxPoint x="1050" y="890" as="sourcePoint" />
            <mxPoint x="1100" y="840" as="targetPoint" />
          </mxGeometry>
        </mxCell>
        <mxCell id="RKQ7zHbird5SUSdAbg0Y-418" value="" style="endArrow=none;html=1;rounded=0;entryX=0.5;entryY=1;entryDx=0;entryDy=0;exitX=0;exitY=0.5;exitDx=0;exitDy=0;" edge="1" parent="1" source="RKQ7zHbird5SUSdAbg0Y-371" target="RKQ7zHbird5SUSdAbg0Y-424">
          <mxGeometry width="50" height="50" relative="1" as="geometry">
            <mxPoint x="1080" y="740" as="sourcePoint" />
            <mxPoint x="1130" y="690" as="targetPoint" />
          </mxGeometry>
        </mxCell>
        <mxCell id="RKQ7zHbird5SUSdAbg0Y-419" value="" style="endArrow=none;html=1;rounded=0;exitX=1;exitY=0.5;exitDx=0;exitDy=0;entryX=0.5;entryY=0;entryDx=0;entryDy=0;" edge="1" parent="1" source="RKQ7zHbird5SUSdAbg0Y-371" target="RKQ7zHbird5SUSdAbg0Y-428">
          <mxGeometry width="50" height="50" relative="1" as="geometry">
            <mxPoint x="1260" y="850" as="sourcePoint" />
            <mxPoint x="1310" y="800" as="targetPoint" />
          </mxGeometry>
        </mxCell>
        <mxCell id="RKQ7zHbird5SUSdAbg0Y-421" value="&lt;b&gt;users&lt;/b&gt;" style="whiteSpace=wrap;html=1;align=center;" vertex="1" parent="1">
          <mxGeometry x="20" y="20" width="90" height="35" as="geometry" />
        </mxCell>
        <mxCell id="RKQ7zHbird5SUSdAbg0Y-422" value="" style="endArrow=none;html=1;rounded=0;entryX=0.5;entryY=0;entryDx=0;entryDy=0;exitX=1;exitY=0.5;exitDx=0;exitDy=0;" edge="1" parent="1" source="RKQ7zHbird5SUSdAbg0Y-372" target="RKQ7zHbird5SUSdAbg0Y-424">
          <mxGeometry width="50" height="50" relative="1" as="geometry">
            <mxPoint x="1350" y="10" as="sourcePoint" />
            <mxPoint x="1608" y="180" as="targetPoint" />
          </mxGeometry>
        </mxCell>
        <mxCell id="RKQ7zHbird5SUSdAbg0Y-423" value="feedback" style="whiteSpace=wrap;html=1;align=center;fontStyle=1" vertex="1" parent="1">
          <mxGeometry x="730" y="10" width="100" height="40" as="geometry" />
        </mxCell>
        <mxCell id="RKQ7zHbird5SUSdAbg0Y-424" value="&lt;b&gt;bookings&lt;/b&gt;" style="whiteSpace=wrap;html=1;align=center;" vertex="1" parent="1">
          <mxGeometry x="730" y="280" width="100" height="40" as="geometry" />
        </mxCell>
        <mxCell id="RKQ7zHbird5SUSdAbg0Y-428" value="&lt;b&gt;flights&lt;/b&gt;" style="whiteSpace=wrap;html=1;align=center;" vertex="1" parent="1">
          <mxGeometry x="730" y="490" width="100" height="40" as="geometry" />
        </mxCell>
        <mxCell id="RKQ7zHbird5SUSdAbg0Y-429" value="&lt;b&gt;payments&lt;/b&gt;" style="whiteSpace=wrap;html=1;align=center;" vertex="1" parent="1">
          <mxGeometry x="730" y="750" width="100" height="40" as="geometry" />
        </mxCell>
        <mxCell id="RKQ7zHbird5SUSdAbg0Y-430" value="&lt;b&gt;passengers&lt;/b&gt;" style="whiteSpace=wrap;html=1;align=center;" vertex="1" parent="1">
          <mxGeometry x="730" y="1010" width="100" height="40" as="geometry" />
        </mxCell>
        <mxCell id="RKQ7zHbird5SUSdAbg0Y-432" value="&lt;b&gt;loyalty_&lt;/b&gt;&lt;div&gt;&lt;b&gt;rewards&lt;/b&gt;&lt;/div&gt;" style="whiteSpace=wrap;html=1;align=center;" vertex="1" parent="1">
          <mxGeometry x="25" y="350" width="70" height="40" as="geometry" />
        </mxCell>
        <mxCell id="RKQ7zHbird5SUSdAbg0Y-433" value="&lt;b&gt;hotel_reviews&lt;/b&gt;" style="whiteSpace=wrap;html=1;align=center;" vertex="1" parent="1">
          <mxGeometry x="35" y="645" width="100" height="40" as="geometry" />
        </mxCell>
        <mxCell id="RKQ7zHbird5SUSdAbg0Y-434" value="" style="endArrow=none;html=1;rounded=0;entryX=0.5;entryY=1;entryDx=0;entryDy=0;exitX=1;exitY=0.5;exitDx=0;exitDy=0;" edge="1" parent="1" source="RKQ7zHbird5SUSdAbg0Y-368" target="RKQ7zHbird5SUSdAbg0Y-17">
          <mxGeometry width="50" height="50" relative="1" as="geometry">
            <mxPoint x="230" y="570" as="sourcePoint" />
            <mxPoint x="280" y="520" as="targetPoint" />
          </mxGeometry>
        </mxCell>
        <mxCell id="RKQ7zHbird5SUSdAbg0Y-435" value="" style="endArrow=none;html=1;rounded=0;entryX=0;entryY=0.5;entryDx=0;entryDy=0;exitX=0.5;exitY=0;exitDx=0;exitDy=0;" edge="1" parent="1" source="RKQ7zHbird5SUSdAbg0Y-433" target="RKQ7zHbird5SUSdAbg0Y-368">
          <mxGeometry width="50" height="50" relative="1" as="geometry">
            <mxPoint x="170" y="590" as="sourcePoint" />
            <mxPoint x="220" y="540" as="targetPoint" />
          </mxGeometry>
        </mxCell>
        <mxCell id="RKQ7zHbird5SUSdAbg0Y-436" value="" style="endArrow=none;html=1;rounded=0;entryX=0.5;entryY=1;entryDx=0;entryDy=0;exitX=0;exitY=0.5;exitDx=0;exitDy=0;" edge="1" parent="1" source="RKQ7zHbird5SUSdAbg0Y-367" target="RKQ7zHbird5SUSdAbg0Y-17">
          <mxGeometry width="50" height="50" relative="1" as="geometry">
            <mxPoint x="350" y="470" as="sourcePoint" />
            <mxPoint x="400" y="420" as="targetPoint" />
          </mxGeometry>
        </mxCell>
        <mxCell id="RKQ7zHbird5SUSdAbg0Y-437" value="" style="endArrow=none;html=1;rounded=0;entryX=1;entryY=0.5;entryDx=0;entryDy=0;exitX=0.5;exitY=0;exitDx=0;exitDy=0;" edge="1" parent="1" source="RKQ7zHbird5SUSdAbg0Y-9" target="RKQ7zHbird5SUSdAbg0Y-367">
          <mxGeometry width="50" height="50" relative="1" as="geometry">
            <mxPoint x="120" y="780" as="sourcePoint" />
            <mxPoint x="170" y="730" as="targetPoint" />
          </mxGeometry>
        </mxCell>
        <mxCell id="RKQ7zHbird5SUSdAbg0Y-438" value="" style="endArrow=none;html=1;rounded=0;entryX=0.5;entryY=1;entryDx=0;entryDy=0;exitX=1;exitY=0.5;exitDx=0;exitDy=0;" edge="1" parent="1" source="RKQ7zHbird5SUSdAbg0Y-439" target="RKQ7zHbird5SUSdAbg0Y-9">
          <mxGeometry width="50" height="50" relative="1" as="geometry">
            <mxPoint x="240" y="770" as="sourcePoint" />
            <mxPoint x="290" y="720" as="targetPoint" />
          </mxGeometry>
        </mxCell>
        <mxCell id="RKQ7zHbird5SUSdAbg0Y-439" value="&lt;b&gt;offers_room_type&lt;/b&gt;" style="shape=rhombus;perimeter=rhombusPerimeter;whiteSpace=wrap;html=1;align=center;rotation=-60;" vertex="1" parent="1">
          <mxGeometry x="80" y="785" width="120" height="60" as="geometry" />
        </mxCell>
        <mxCell id="RKQ7zHbird5SUSdAbg0Y-440" value="&lt;font face=&quot;Helvetica&quot;&gt;&lt;b&gt;includes_photo&lt;/b&gt;&lt;/font&gt;" style="shape=rhombus;perimeter=rhombusPerimeter;whiteSpace=wrap;html=1;align=center;rotation=90;" vertex="1" parent="1">
          <mxGeometry x="290" y="480" width="120" height="60" as="geometry" />
        </mxCell>
        <mxCell id="RKQ7zHbird5SUSdAbg0Y-441" value="&lt;b&gt;&lt;font face=&quot;Helvetica&quot;&gt;has_status&lt;/font&gt;&lt;/b&gt;" style="shape=rhombus;perimeter=rhombusPerimeter;whiteSpace=wrap;html=1;align=center;rotation=90;" vertex="1" parent="1">
          <mxGeometry x="380" y="520" width="120" height="60" as="geometry" />
        </mxCell>
        <mxCell id="RKQ7zHbird5SUSdAbg0Y-442" value="" style="endArrow=none;html=1;rounded=0;entryX=0;entryY=0.5;entryDx=0;entryDy=0;exitX=0.5;exitY=0;exitDx=0;exitDy=0;" edge="1" parent="1" source="RKQ7zHbird5SUSdAbg0Y-13" target="RKQ7zHbird5SUSdAbg0Y-439">
          <mxGeometry width="50" height="50" relative="1" as="geometry">
            <mxPoint x="180" y="970" as="sourcePoint" />
            <mxPoint x="230" y="920" as="targetPoint" />
          </mxGeometry>
        </mxCell>
        <mxCell id="RKQ7zHbird5SUSdAbg0Y-443" value="&lt;b&gt;provides_facility&lt;/b&gt;" style="shape=rhombus;perimeter=rhombusPerimeter;whiteSpace=wrap;html=1;align=center;rotation=90;" vertex="1" parent="1">
          <mxGeometry x="210" y="805" width="120" height="60" as="geometry" />
        </mxCell>
        <mxCell id="RKQ7zHbird5SUSdAbg0Y-444" value="" style="endArrow=none;html=1;rounded=0;entryX=1;entryY=0.5;entryDx=0;entryDy=0;exitX=0.5;exitY=0;exitDx=0;exitDy=0;" edge="1" parent="1" source="RKQ7zHbird5SUSdAbg0Y-18" target="RKQ7zHbird5SUSdAbg0Y-441">
          <mxGeometry width="50" height="50" relative="1" as="geometry">
            <mxPoint x="700" y="680" as="sourcePoint" />
            <mxPoint x="750" y="630" as="targetPoint" />
          </mxGeometry>
        </mxCell>
        <mxCell id="RKQ7zHbird5SUSdAbg0Y-446" value="" style="endArrow=none;html=1;rounded=0;entryX=1;entryY=0.5;entryDx=0;entryDy=0;exitX=0.5;exitY=0;exitDx=0;exitDy=0;" edge="1" parent="1" source="RKQ7zHbird5SUSdAbg0Y-15" target="RKQ7zHbird5SUSdAbg0Y-443">
          <mxGeometry width="50" height="50" relative="1" as="geometry">
            <mxPoint x="460" y="980" as="sourcePoint" />
            <mxPoint x="510" y="930" as="targetPoint" />
          </mxGeometry>
        </mxCell>
        <mxCell id="RKQ7zHbird5SUSdAbg0Y-447" value="" style="endArrow=none;html=1;rounded=0;entryX=1;entryY=0.5;entryDx=0;entryDy=0;exitX=0.5;exitY=0;exitDx=0;exitDy=0;" edge="1" parent="1" source="RKQ7zHbird5SUSdAbg0Y-19" target="RKQ7zHbird5SUSdAbg0Y-440">
          <mxGeometry width="50" height="50" relative="1" as="geometry">
            <mxPoint x="460" y="980" as="sourcePoint" />
            <mxPoint x="510" y="930" as="targetPoint" />
          </mxGeometry>
        </mxCell>
        <mxCell id="RKQ7zHbird5SUSdAbg0Y-448" value="" style="endArrow=none;html=1;rounded=0;entryX=0.5;entryY=1;entryDx=0;entryDy=0;exitX=0;exitY=0.5;exitDx=0;exitDy=0;" edge="1" parent="1" source="RKQ7zHbird5SUSdAbg0Y-441" target="RKQ7zHbird5SUSdAbg0Y-17">
          <mxGeometry width="50" height="50" relative="1" as="geometry">
            <mxPoint x="460" y="980" as="sourcePoint" />
            <mxPoint x="510" y="930" as="targetPoint" />
          </mxGeometry>
        </mxCell>
        <mxCell id="RKQ7zHbird5SUSdAbg0Y-449" value="" style="endArrow=none;html=1;rounded=0;entryX=0.5;entryY=1;entryDx=0;entryDy=0;exitX=0;exitY=0.5;exitDx=0;exitDy=0;" edge="1" parent="1" source="RKQ7zHbird5SUSdAbg0Y-440" target="RKQ7zHbird5SUSdAbg0Y-17">
          <mxGeometry width="50" height="50" relative="1" as="geometry">
            <mxPoint x="460" y="980" as="sourcePoint" />
            <mxPoint x="510" y="930" as="targetPoint" />
          </mxGeometry>
        </mxCell>
        <mxCell id="RKQ7zHbird5SUSdAbg0Y-450" value="" style="endArrow=none;html=1;rounded=0;entryX=0.5;entryY=1;entryDx=0;entryDy=0;exitX=0;exitY=0.5;exitDx=0;exitDy=0;" edge="1" parent="1" source="RKQ7zHbird5SUSdAbg0Y-443" target="RKQ7zHbird5SUSdAbg0Y-9">
          <mxGeometry width="50" height="50" relative="1" as="geometry">
            <mxPoint x="460" y="980" as="sourcePoint" />
            <mxPoint x="510" y="930" as="targetPoint" />
          </mxGeometry>
        </mxCell>
        <mxCell id="RKQ7zHbird5SUSdAbg0Y-451" value="&lt;b&gt;multi_city_segments&lt;/b&gt;" style="whiteSpace=wrap;html=1;align=center;" vertex="1" parent="1">
          <mxGeometry x="545" y="845" width="140" height="50" as="geometry" />
        </mxCell>
        <mxCell id="RKQ7zHbird5SUSdAbg0Y-452" value="&lt;b&gt;multi_city_bookings&lt;/b&gt;" style="whiteSpace=wrap;html=1;align=center;" vertex="1" parent="1">
          <mxGeometry x="460" y="595" width="120" height="40" as="geometry" />
        </mxCell>
        <mxCell id="RKQ7zHbird5SUSdAbg0Y-454" value="&lt;b&gt;part_of_multi_&lt;/b&gt;&lt;div&gt;&lt;b&gt;city_booking&lt;/b&gt;&lt;/div&gt;" style="shape=rhombus;perimeter=rhombusPerimeter;whiteSpace=wrap;html=1;align=center;rotation=90;" vertex="1" parent="1">
          <mxGeometry x="430" y="425" width="140" height="70" as="geometry" />
        </mxCell>
        <mxCell id="RKQ7zHbird5SUSdAbg0Y-455" value="&lt;b&gt;contains_segment&lt;/b&gt;" style="shape=rhombus;perimeter=rhombusPerimeter;whiteSpace=wrap;html=1;align=center;rotation=90;" vertex="1" parent="1">
          <mxGeometry x="522.5" y="472.5" width="165" height="60" as="geometry" />
        </mxCell>
        <mxCell id="RKQ7zHbird5SUSdAbg0Y-456" value="" style="endArrow=none;html=1;rounded=0;entryX=1;entryY=0.5;entryDx=0;entryDy=0;exitX=0.5;exitY=0;exitDx=0;exitDy=0;" edge="1" parent="1" source="RKQ7zHbird5SUSdAbg0Y-451" target="RKQ7zHbird5SUSdAbg0Y-462">
          <mxGeometry width="50" height="50" relative="1" as="geometry">
            <mxPoint x="510" y="670" as="sourcePoint" />
            <mxPoint x="560" y="620" as="targetPoint" />
          </mxGeometry>
        </mxCell>
        <mxCell id="RKQ7zHbird5SUSdAbg0Y-457" value="" style="endArrow=none;html=1;rounded=0;entryX=0;entryY=1;entryDx=0;entryDy=0;exitX=0;exitY=0.5;exitDx=0;exitDy=0;" edge="1" parent="1" source="RKQ7zHbird5SUSdAbg0Y-462" target="RKQ7zHbird5SUSdAbg0Y-428">
          <mxGeometry width="50" height="50" relative="1" as="geometry">
            <mxPoint x="510" y="670" as="sourcePoint" />
            <mxPoint x="560" y="620" as="targetPoint" />
          </mxGeometry>
        </mxCell>
        <mxCell id="RKQ7zHbird5SUSdAbg0Y-458" value="" style="endArrow=none;html=1;rounded=0;entryX=1;entryY=0.5;entryDx=0;entryDy=0;exitX=0.5;exitY=0;exitDx=0;exitDy=0;" edge="1" parent="1" source="RKQ7zHbird5SUSdAbg0Y-451" target="RKQ7zHbird5SUSdAbg0Y-455">
          <mxGeometry width="50" height="50" relative="1" as="geometry">
            <mxPoint x="510" y="670" as="sourcePoint" />
            <mxPoint x="560" y="620" as="targetPoint" />
          </mxGeometry>
        </mxCell>
        <mxCell id="RKQ7zHbird5SUSdAbg0Y-459" value="" style="endArrow=none;html=1;rounded=0;entryX=1;entryY=0.5;entryDx=0;entryDy=0;exitX=0;exitY=0.5;exitDx=0;exitDy=0;" edge="1" parent="1" source="RKQ7zHbird5SUSdAbg0Y-455" target="RKQ7zHbird5SUSdAbg0Y-17">
          <mxGeometry width="50" height="50" relative="1" as="geometry">
            <mxPoint x="510" y="670" as="sourcePoint" />
            <mxPoint x="560" y="620" as="targetPoint" />
          </mxGeometry>
        </mxCell>
        <mxCell id="RKQ7zHbird5SUSdAbg0Y-460" value="" style="endArrow=none;html=1;rounded=0;entryX=1;entryY=0.5;entryDx=0;entryDy=0;exitX=0.5;exitY=0;exitDx=0;exitDy=0;" edge="1" parent="1" source="RKQ7zHbird5SUSdAbg0Y-452" target="RKQ7zHbird5SUSdAbg0Y-454">
          <mxGeometry width="50" height="50" relative="1" as="geometry">
            <mxPoint x="510" y="670" as="sourcePoint" />
            <mxPoint x="560" y="620" as="targetPoint" />
          </mxGeometry>
        </mxCell>
        <mxCell id="RKQ7zHbird5SUSdAbg0Y-461" value="" style="endArrow=none;html=1;rounded=0;entryX=0.5;entryY=1;entryDx=0;entryDy=0;exitX=0;exitY=0.5;exitDx=0;exitDy=0;" edge="1" parent="1" source="RKQ7zHbird5SUSdAbg0Y-454" target="RKQ7zHbird5SUSdAbg0Y-17">
          <mxGeometry width="50" height="50" relative="1" as="geometry">
            <mxPoint x="510" y="670" as="sourcePoint" />
            <mxPoint x="560" y="620" as="targetPoint" />
          </mxGeometry>
        </mxCell>
        <mxCell id="RKQ7zHbird5SUSdAbg0Y-462" value="&lt;b&gt;flight_segments&lt;/b&gt;" style="shape=rhombus;perimeter=rhombusPerimeter;whiteSpace=wrap;html=1;align=center;rotation=105;" vertex="1" parent="1">
          <mxGeometry x="630" y="660" width="120" height="60" as="geometry" />
        </mxCell>
        <mxCell id="RKQ7zHbird5SUSdAbg0Y-464" value="M" style="text;html=1;align=center;verticalAlign=middle;resizable=0;points=[];autosize=1;strokeColor=none;fillColor=none;" vertex="1" parent="1">
          <mxGeometry x="520" y="560" width="30" height="30" as="geometry" />
        </mxCell>
        <mxCell id="RKQ7zHbird5SUSdAbg0Y-465" value="1" style="text;html=1;align=center;verticalAlign=middle;resizable=0;points=[];autosize=1;strokeColor=none;fillColor=none;" vertex="1" parent="1">
          <mxGeometry x="725" y="530" width="30" height="30" as="geometry" />
        </mxCell>
        <mxCell id="RKQ7zHbird5SUSdAbg0Y-466" value="1" style="text;html=1;align=center;verticalAlign=middle;resizable=0;points=[];autosize=1;strokeColor=none;fillColor=none;" vertex="1" parent="1">
          <mxGeometry x="325" y="310" width="30" height="30" as="geometry" />
        </mxCell>
        <mxCell id="RKQ7zHbird5SUSdAbg0Y-467" value="M" style="text;html=1;align=center;verticalAlign=middle;resizable=0;points=[];autosize=1;strokeColor=none;fillColor=none;rotation=90;" vertex="1" parent="1">
          <mxGeometry x="55" y="390" width="30" height="30" as="geometry" />
        </mxCell>
        <mxCell id="RKQ7zHbird5SUSdAbg0Y-468" value="1" style="text;html=1;align=center;verticalAlign=middle;resizable=0;points=[];autosize=1;strokeColor=none;fillColor=none;rotation=90;" vertex="1" parent="1">
          <mxGeometry x="60" y="65" width="30" height="30" as="geometry" />
        </mxCell>
        <mxCell id="RKQ7zHbird5SUSdAbg0Y-469" value="1" style="text;html=1;align=center;verticalAlign=middle;resizable=0;points=[];autosize=1;strokeColor=none;fillColor=none;" vertex="1" parent="1">
          <mxGeometry x="85" y="60" width="30" height="30" as="geometry" />
        </mxCell>
        <mxCell id="RKQ7zHbird5SUSdAbg0Y-470" value="1" style="text;html=1;align=center;verticalAlign=middle;resizable=0;points=[];autosize=1;strokeColor=none;fillColor=none;" vertex="1" parent="1">
          <mxGeometry x="110" y="40" width="30" height="30" as="geometry" />
        </mxCell>
        <mxCell id="RKQ7zHbird5SUSdAbg0Y-471" value="1" style="text;html=1;align=center;verticalAlign=middle;resizable=0;points=[];autosize=1;strokeColor=none;fillColor=none;" vertex="1" parent="1">
          <mxGeometry x="775" y="795" width="30" height="30" as="geometry" />
        </mxCell>
        <mxCell id="RKQ7zHbird5SUSdAbg0Y-472" value="1" style="text;html=1;align=center;verticalAlign=middle;resizable=0;points=[];autosize=1;strokeColor=none;fillColor=none;" vertex="1" parent="1">
          <mxGeometry x="790" y="530" width="30" height="30" as="geometry" />
        </mxCell>
        <mxCell id="RKQ7zHbird5SUSdAbg0Y-473" value="1" style="text;html=1;align=center;verticalAlign=middle;resizable=0;points=[];autosize=1;strokeColor=none;fillColor=none;" vertex="1" parent="1">
          <mxGeometry x="780" y="455" width="30" height="30" as="geometry" />
        </mxCell>
        <mxCell id="RKQ7zHbird5SUSdAbg0Y-474" value="1" style="text;html=1;align=center;verticalAlign=middle;resizable=0;points=[];autosize=1;strokeColor=none;fillColor=none;" vertex="1" parent="1">
          <mxGeometry x="780" y="250" width="30" height="30" as="geometry" />
        </mxCell>
        <mxCell id="RKQ7zHbird5SUSdAbg0Y-475" value="1" style="text;html=1;align=center;verticalAlign=middle;resizable=0;points=[];autosize=1;strokeColor=none;fillColor=none;" vertex="1" parent="1">
          <mxGeometry x="105" y="15" width="30" height="30" as="geometry" />
        </mxCell>
        <mxCell id="RKQ7zHbird5SUSdAbg0Y-476" value="M" style="text;html=1;align=center;verticalAlign=middle;resizable=0;points=[];autosize=1;strokeColor=none;fillColor=none;" vertex="1" parent="1">
          <mxGeometry x="630" y="815" width="30" height="30" as="geometry" />
        </mxCell>
        <mxCell id="RKQ7zHbird5SUSdAbg0Y-478" value="M" style="text;html=1;align=center;verticalAlign=middle;resizable=0;points=[];autosize=1;strokeColor=none;fillColor=none;rotation=90;" vertex="1" parent="1">
          <mxGeometry x="55" y="615" width="30" height="30" as="geometry" />
        </mxCell>
        <mxCell id="RKQ7zHbird5SUSdAbg0Y-479" value="M" style="text;html=1;align=center;verticalAlign=middle;resizable=0;points=[];autosize=1;strokeColor=none;fillColor=none;rotation=90;" vertex="1" parent="1">
          <mxGeometry x="60" y="319" width="30" height="30" as="geometry" />
        </mxCell>
        <mxCell id="RKQ7zHbird5SUSdAbg0Y-480" value="M" style="text;html=1;align=center;verticalAlign=middle;resizable=0;points=[];autosize=1;strokeColor=none;fillColor=none;" vertex="1" parent="1">
          <mxGeometry x="370" y="240" width="30" height="30" as="geometry" />
        </mxCell>
        <mxCell id="RKQ7zHbird5SUSdAbg0Y-481" value="M" style="text;html=1;align=center;verticalAlign=middle;resizable=0;points=[];autosize=1;strokeColor=none;fillColor=none;" vertex="1" parent="1">
          <mxGeometry x="700" y="250" width="30" height="30" as="geometry" />
        </mxCell>
        <mxCell id="RKQ7zHbird5SUSdAbg0Y-482" value="M" style="text;html=1;align=center;verticalAlign=middle;resizable=0;points=[];autosize=1;strokeColor=none;fillColor=none;" vertex="1" parent="1">
          <mxGeometry x="780" y="715" width="30" height="30" as="geometry" />
        </mxCell>
        <mxCell id="RKQ7zHbird5SUSdAbg0Y-483" value="M" style="text;html=1;align=center;verticalAlign=middle;resizable=0;points=[];autosize=1;strokeColor=none;fillColor=none;" vertex="1" parent="1">
          <mxGeometry x="780" y="320" width="30" height="30" as="geometry" />
        </mxCell>
        <mxCell id="RKQ7zHbird5SUSdAbg0Y-484" value="M" style="text;html=1;align=center;verticalAlign=middle;resizable=0;points=[];autosize=1;strokeColor=none;fillColor=none;" vertex="1" parent="1">
          <mxGeometry x="780" y="50" width="30" height="30" as="geometry" />
        </mxCell>
        <mxCell id="RKQ7zHbird5SUSdAbg0Y-485" value="M" style="text;html=1;align=center;verticalAlign=middle;resizable=0;points=[];autosize=1;strokeColor=none;fillColor=none;" vertex="1" parent="1">
          <mxGeometry x="700" y="10" width="30" height="30" as="geometry" />
        </mxCell>
        <mxCell id="RKQ7zHbird5SUSdAbg0Y-487" value="M" style="text;html=1;align=center;verticalAlign=middle;resizable=0;points=[];autosize=1;strokeColor=none;fillColor=none;" vertex="1" parent="1">
          <mxGeometry x="780" y="980" width="30" height="30" as="geometry" />
        </mxCell>
        <mxCell id="RKQ7zHbird5SUSdAbg0Y-492" value="1" style="text;html=1;align=center;verticalAlign=middle;resizable=0;points=[];autosize=1;strokeColor=none;fillColor=none;" vertex="1" parent="1">
          <mxGeometry x="460" y="275" width="30" height="30" as="geometry" />
        </mxCell>
        <mxCell id="RKQ7zHbird5SUSdAbg0Y-493" value="1" style="text;html=1;align=center;verticalAlign=middle;resizable=0;points=[];autosize=1;strokeColor=none;fillColor=none;" vertex="1" parent="1">
          <mxGeometry x="430" y="310" width="30" height="30" as="geometry" />
        </mxCell>
        <mxCell id="RKQ7zHbird5SUSdAbg0Y-494" value="1" style="text;html=1;align=center;verticalAlign=middle;resizable=0;points=[];autosize=1;strokeColor=none;fillColor=none;" vertex="1" parent="1">
          <mxGeometry x="385" y="330" width="30" height="30" as="geometry" />
        </mxCell>
        <mxCell id="RKQ7zHbird5SUSdAbg0Y-495" value="1" style="text;html=1;align=center;verticalAlign=middle;resizable=0;points=[];autosize=1;strokeColor=none;fillColor=none;rotation=90;" vertex="1" parent="1">
          <mxGeometry x="220" y="665" width="30" height="30" as="geometry" />
        </mxCell>
        <mxCell id="RKQ7zHbird5SUSdAbg0Y-496" value="1" style="text;html=1;align=center;verticalAlign=middle;resizable=0;points=[];autosize=1;strokeColor=none;fillColor=none;rotation=-55;" vertex="1" parent="1">
          <mxGeometry x="180" y="670" width="30" height="30" as="geometry" />
        </mxCell>
        <mxCell id="RKQ7zHbird5SUSdAbg0Y-497" value="M" style="text;html=1;align=center;verticalAlign=middle;resizable=0;points=[];autosize=1;strokeColor=none;fillColor=none;" vertex="1" parent="1">
          <mxGeometry x="410" y="725" width="30" height="30" as="geometry" />
        </mxCell>
        <mxCell id="RKQ7zHbird5SUSdAbg0Y-498" value="M" style="text;html=1;align=center;verticalAlign=middle;resizable=0;points=[];autosize=1;strokeColor=none;fillColor=none;" vertex="1" parent="1">
          <mxGeometry x="350" y="349" width="30" height="30" as="geometry" />
        </mxCell>
        <mxCell id="RKQ7zHbird5SUSdAbg0Y-499" value="M" style="text;html=1;align=center;verticalAlign=middle;resizable=0;points=[];autosize=1;strokeColor=none;fillColor=none;" vertex="1" parent="1">
          <mxGeometry x="285" y="650" width="30" height="30" as="geometry" />
        </mxCell>
        <mxCell id="RKQ7zHbird5SUSdAbg0Y-500" value="M" style="text;html=1;align=center;verticalAlign=middle;resizable=0;points=[];autosize=1;strokeColor=none;fillColor=none;" vertex="1" parent="1">
          <mxGeometry x="330" y="340" width="30" height="30" as="geometry" />
        </mxCell>
        <mxCell id="RKQ7zHbird5SUSdAbg0Y-501" value="M" style="text;html=1;align=center;verticalAlign=middle;resizable=0;points=[];autosize=1;strokeColor=none;fillColor=none;" vertex="1" parent="1">
          <mxGeometry x="190" y="590" width="30" height="30" as="geometry" />
        </mxCell>
        <mxCell id="RKQ7zHbird5SUSdAbg0Y-502" value="M" style="text;html=1;align=center;verticalAlign=middle;resizable=0;points=[];autosize=1;strokeColor=none;fillColor=none;rotation=75;" vertex="1" parent="1">
          <mxGeometry x="290" y="980" width="30" height="30" as="geometry" />
        </mxCell>
        <mxCell id="RKQ7zHbird5SUSdAbg0Y-503" value="M" style="text;html=1;align=center;verticalAlign=middle;resizable=0;points=[];autosize=1;strokeColor=none;fillColor=none;rotation=-67;" vertex="1" parent="1">
          <mxGeometry x="45" y="960" width="30" height="30" as="geometry" />
        </mxCell>
        <mxCell id="RKQ7zHbird5SUSdAbg0Y-505" value="M" style="text;html=1;align=center;verticalAlign=middle;resizable=0;points=[];autosize=1;strokeColor=none;fillColor=none;" vertex="1" parent="1">
          <mxGeometry x="610" y="780" width="30" height="30" as="geometry" />
        </mxCell>
        <mxCell id="RKQ7zHbird5SUSdAbg0Y-506" value="M" style="text;html=1;align=center;verticalAlign=middle;resizable=0;points=[];autosize=1;strokeColor=none;fillColor=none;rotation=90;" vertex="1" parent="1">
          <mxGeometry x="90" y="615" width="30" height="30" as="geometry" />
        </mxCell>
      </root>
    </mxGraphModel>
  </diagram>
</mxfile>
